<?xml version="1.0" encoding="UTF-8" standalone="no"?><!DOCTYPE svg PUBLIC "-//W3C//DTD SVG 1.1//EN" "http://www.w3.org/Graphics/SVG/1.1/DTD/svg11.dtd"><svg width="100%" height="100%" viewBox="0 0 1959 1171" version="1.1" xmlns="http://www.w3.org/2000/svg" xmlns:xlink="http://www.w3.org/1999/xlink" xml:space="preserve" xmlns:serif="http://www.serif.com/" style="fill-rule:evenodd;clip-rule:evenodd;stroke-linejoin:round;stroke-miterlimit:2;"><g><path d="M1799.42,161.971l-134.746,-54.217l-0,-37.508c-0,-10.359 -8.396,-18.75 -18.75,-18.75c-10.358,-0 -18.75,8.391 -18.75,18.75l-0,22.417l-220.571,-88.751c-4.517,-1.816 -9.575,-1.8 -14.092,0.038l-386.458,157.958c-9.583,3.917 -14.179,14.867 -10.258,24.45c3.92,9.588 14.862,14.188 24.45,10.267l379.416,-155.083l385.763,155.216c2.291,0.925 4.658,1.363 6.991,1.363c7.43,-0 14.459,-4.442 17.401,-11.754c3.866,-9.609 -0.788,-20.534 -10.396,-24.396Z" style="fill:#545e9c;fill-rule:nonzero;"/><path d="M228.821,848.892c-2.588,-0 -4.654,-0.829 -6.217,-2.488c-1.571,-1.654 -2.35,-3.591 -2.35,-5.8l0,-176.8c0,-2.204 0.829,-4.137 2.488,-5.8c1.654,-1.654 3.591,-2.487 5.804,-2.487l100.55,-0c2.396,-0 4.375,0.787 5.946,2.35c1.562,1.562 2.341,3.55 2.341,5.937c0,2.209 -0.779,4.1 -2.341,5.663c-1.571,1.571 -3.55,2.35 -5.946,2.35l-93.092,-0l1.1,-1.663l0,73.483l-1.383,-2.475l80.946,0c2.391,0 4.366,0.78 5.937,2.342c1.563,1.571 2.35,3.446 2.35,5.663c0,2.395 -0.787,4.325 -2.35,5.8c-1.571,1.475 -3.546,2.212 -5.937,2.212l-81.488,0l1.925,-2.212l0,85.637c0,2.209 -0.783,4.146 -2.346,5.8c-1.566,1.659 -3.55,2.488 -5.937,2.488Z" style="fill:#545e9c;fill-rule:nonzero;"/><path d="M494.567,778.171c-0,-11.229 -2.3,-21.225 -6.9,-29.967c-4.605,-8.746 -10.917,-15.658 -18.925,-20.721c-8.013,-5.066 -17.175,-7.6 -27.488,-7.6c-10.129,0 -19.2,2.534 -27.212,7.6c-8.013,5.063 -14.363,11.975 -19.063,20.721c-4.696,8.742 -7.046,18.738 -7.046,29.967c0,11.237 2.35,21.187 7.046,29.833c4.7,8.663 11.05,15.517 19.063,20.579c8.012,5.071 17.083,7.6 27.212,7.6c10.313,0 19.475,-2.529 27.488,-7.6c8.008,-5.062 14.32,-11.916 18.925,-20.579c4.6,-8.646 6.9,-18.596 6.9,-29.833Zm16.575,-0c-0,14 -3.08,26.571 -9.254,37.708c-6.171,11.142 -14.501,19.892 -24.996,26.242c-10.5,6.358 -22.379,9.533 -35.638,9.533c-13.079,0 -24.912,-3.175 -35.5,-9.533c-10.587,-6.35 -18.971,-15.1 -25.137,-26.242c-6.171,-11.137 -9.259,-23.708 -9.259,-37.708c0,-14.179 3.088,-26.792 9.259,-37.85c6.166,-11.042 14.55,-19.792 25.137,-26.238c10.588,-6.441 22.421,-9.666 35.5,-9.666c13.259,-0 25.138,3.225 35.638,9.666c10.495,6.446 18.825,15.196 24.996,26.238c6.174,11.058 9.254,23.671 9.254,37.85Z" style="fill:#545e9c;fill-rule:nonzero;"/><path d="M663.075,708.563c2.396,-0 4.375,0.824 5.938,2.479c1.562,1.658 2.349,3.596 2.349,5.8l0,77.908c0,18.229 -5.162,32.138 -15.466,41.712c-10.321,9.576 -24.221,14.367 -41.713,14.367c-17.321,0 -31.083,-4.791 -41.3,-14.367c-10.225,-9.574 -15.333,-23.483 -15.333,-41.712l-0,-77.908c-0,-2.204 0.783,-4.142 2.346,-5.8c1.562,-1.655 3.542,-2.479 5.941,-2.479c2.388,-0 4.375,0.824 5.938,2.479c1.562,1.658 2.35,3.596 2.35,5.8l-0,77.908c-0,13.254 3.538,23.338 10.638,30.25c7.083,6.9 16.887,10.354 29.42,10.354c12.705,0 22.65,-3.454 29.83,-10.354c7.187,-6.912 10.775,-16.996 10.775,-30.25l-0,-77.908c-0,-2.204 0.737,-4.142 2.208,-5.8c1.475,-1.655 3.5,-2.479 6.079,-2.479Z" style="fill:#545e9c;fill-rule:nonzero;"/><path d="M793.737,704.417c12.155,-0 21.867,2.446 29.15,7.321c7.267,4.879 12.517,11.512 15.742,19.891c3.221,8.375 4.833,17.633 4.833,27.758l0,81.217c0,2.213 -0.824,4.146 -2.487,5.8c-1.658,1.659 -3.596,2.488 -5.8,2.488c-2.583,-0 -4.608,-0.829 -6.075,-2.488c-1.483,-1.654 -2.212,-3.587 -2.212,-5.8l-0,-80.387c-0,-7.363 -1.201,-14.088 -3.596,-20.167c-2.392,-6.075 -6.305,-10.958 -11.738,-14.646c-5.437,-3.675 -12.566,-5.516 -21.404,-5.516c-7.921,-0 -15.425,1.841 -22.521,5.516c-7.087,3.688 -12.841,8.571 -17.262,14.646c-4.417,6.079 -6.63,12.804 -6.63,20.167l0,80.387c0,2.213 -0.833,4.146 -2.487,5.8c-1.658,1.659 -3.596,2.488 -5.8,2.488c-2.583,-0 -4.608,-0.829 -6.075,-2.488c-1.475,-1.654 -2.213,-3.587 -2.213,-5.8l0,-123.762c0,-2.204 0.78,-4.142 2.35,-5.792c1.563,-1.663 3.542,-2.487 5.938,-2.487c2.392,-0 4.375,0.824 5.942,2.487c1.562,1.65 2.345,3.588 2.345,5.792l0,23.208l-6.358,9.95c0.371,-5.896 2.259,-11.558 5.671,-16.996c3.4,-5.429 7.775,-10.312 13.117,-14.642c5.346,-4.32 11.275,-7.737 17.821,-10.212c6.529,-2.496 13.116,-3.733 19.749,-3.733Z" style="fill:#545e9c;fill-rule:nonzero;"/><path d="M956.442,836.187c9.762,0 18.416,-2.533 25.966,-7.599c7.55,-5.063 13.488,-11.971 17.821,-20.713c4.329,-8.758 6.5,-18.746 6.5,-29.975c0,-11.058 -2.171,-20.95 -6.5,-29.696c-4.333,-8.75 -10.271,-15.654 -17.821,-20.725c-7.55,-5.062 -16.204,-7.591 -25.966,-7.591c-9.575,-0 -18.188,2.529 -25.825,7.591c-7.646,5.071 -13.634,11.975 -17.959,20.725c-4.329,8.746 -6.491,18.638 -6.491,29.696c-0,11.042 2.162,20.988 6.491,29.829c4.325,8.846 10.313,15.796 17.959,20.859c7.637,5.066 16.25,7.599 25.825,7.599Zm57.462,-191.72c2.392,-0 4.379,0.787 5.942,2.35c1.562,1.57 2.35,3.55 2.35,5.937l-0,187.85c-0,2.213 -0.829,4.146 -2.492,5.8c-1.658,1.659 -3.587,2.488 -5.8,2.488c-2.583,-0 -4.6,-0.829 -6.075,-2.488c-1.475,-1.654 -2.212,-3.587 -2.212,-5.8l-0,-32.875l4.7,-3.862c-0,5.15 -1.388,10.545 -4.146,16.158c-2.763,5.617 -6.679,10.825 -11.742,15.604c-5.062,4.8 -10.962,8.658 -17.683,11.613c-6.725,2.937 -14.042,4.412 -21.963,4.412c-12.15,0 -23.154,-3.217 -33.004,-9.662c-9.858,-6.45 -17.646,-15.2 -23.346,-26.25c-5.712,-11.05 -8.566,-23.667 -8.566,-37.842c-0,-13.996 2.854,-26.563 8.566,-37.708c5.7,-11.142 13.438,-19.892 23.2,-26.25c9.763,-6.35 20.721,-9.525 32.875,-9.525c7.738,-0 15.013,1.383 21.825,4.146c6.809,2.754 12.846,6.537 18.096,11.325c5.25,4.787 9.392,10.262 12.425,16.429c3.05,6.183 4.567,12.571 4.567,19.208l-5.804,-4.146l-0,-98.625c-0,-2.204 0.737,-4.142 2.212,-5.791c1.475,-1.663 3.492,-2.496 6.075,-2.496Z" style="fill:#545e9c;fill-rule:nonzero;"/><path d="M1135.17,836.187c9.762,0 18.412,-2.533 25.971,-7.599c7.541,-5.063 13.483,-12.063 17.816,-20.988c4.321,-8.937 6.488,-18.933 6.488,-29.983c-0,-10.854 -2.167,-20.617 -6.488,-29.28c-4.333,-8.649 -10.275,-15.558 -17.816,-20.72c-7.559,-5.15 -16.209,-7.729 -25.971,-7.729c-9.575,-0 -18.188,2.487 -25.829,7.454c-7.638,4.97 -13.625,11.787 -17.959,20.446c-4.325,8.654 -6.487,18.604 -6.487,29.829c-0,11.05 2.108,21.046 6.358,29.983c4.229,8.925 10.167,15.925 17.813,20.988c7.637,5.066 16.341,7.599 26.104,7.599Zm57.454,-128.458c2.396,0 4.379,0.834 5.946,2.488c1.562,1.658 2.35,3.687 2.35,6.07l-0,124.317c-0,2.213 -0.829,4.146 -2.488,5.8c-1.662,1.659 -3.591,2.488 -5.808,2.488c-2.571,-0 -4.604,-0.829 -6.067,-2.488c-1.487,-1.654 -2.212,-3.587 -2.212,-5.8l-0,-32.875l4.696,-2.204c-0,5.154 -1.429,10.404 -4.275,15.742c-2.867,5.346 -6.775,10.312 -11.746,14.92c-4.975,4.605 -10.825,8.338 -17.542,11.188c-6.725,2.85 -14.046,4.279 -21.971,4.279c-12.337,0 -23.433,-3.216 -33.279,-9.662c-9.858,-6.45 -17.591,-15.292 -23.212,-26.525c-5.613,-11.225 -8.421,-23.85 -8.421,-37.85c-0,-14.363 2.854,-27.017 8.562,-37.979c5.709,-10.95 13.446,-19.563 23.209,-25.825c9.754,-6.263 20.716,-9.396 32.866,-9.396c7.925,-0 15.346,1.383 22.246,4.146c6.904,2.754 12.929,6.537 18.092,11.325c5.158,4.787 9.208,10.262 12.154,16.429c2.946,6.183 4.421,12.571 4.421,19.208l-5.8,-4.146l-0,-35.092c-0,-2.383 0.725,-4.412 2.212,-6.07c1.463,-1.654 3.496,-2.488 6.067,-2.488Z" style="fill:#545e9c;fill-rule:nonzero;"/><path d="M1276.06,669.329c2.392,0 4.367,0.829 5.938,2.488c1.562,1.654 2.35,3.591 2.35,5.804l-0,138.675c-0,5.162 0.696,9.021 2.071,11.6c1.387,2.583 3.179,4.287 5.387,5.112c2.208,0.825 4.421,1.246 6.629,1.246c1.471,0 2.804,-0.225 4.013,-0.696c1.187,-0.454 2.525,-0.687 3.996,-0.687c1.662,-0 3.079,0.646 4.283,1.937c1.196,1.288 1.804,2.938 1.804,4.963c0,2.596 -1.479,4.75 -4.425,6.5c-2.95,1.75 -6.446,2.621 -10.504,2.621c-1.646,-0 -4.138,-0.138 -7.454,-0.413c-3.313,-0.283 -6.721,-1.287 -10.221,-3.037c-3.5,-1.759 -6.4,-4.838 -8.7,-9.259c-2.312,-4.425 -3.45,-10.766 -3.45,-19.066l-0,-139.496c-0,-2.213 0.783,-4.15 2.346,-5.804c1.562,-1.659 3.546,-2.488 5.937,-2.488Zm-28.458,38.95l64.371,0c2.212,0 4.05,0.779 5.525,2.342c1.475,1.575 2.204,3.462 2.204,5.671c-0,2.029 -0.729,3.779 -2.204,5.25c-1.475,1.479 -3.313,2.212 -5.525,2.212l-64.371,0c-2.204,0 -4.1,-0.783 -5.662,-2.35c-1.567,-1.562 -2.35,-3.362 -2.35,-5.387c-0,-2.209 0.783,-4.05 2.35,-5.521c1.562,-1.475 3.458,-2.217 5.662,-2.217Z" style="fill:#545e9c;fill-rule:nonzero;"/><path d="M1378.82,840.604c-0,2.213 -0.829,4.146 -2.488,5.8c-1.654,1.659 -3.591,2.488 -5.8,2.488c-2.4,-0 -4.375,-0.829 -5.937,-2.488c-1.567,-1.654 -2.35,-3.587 -2.35,-5.8l-0,-127.075c-0,-2.212 0.783,-4.142 2.35,-5.8c1.562,-1.654 3.537,-2.487 5.937,-2.487c2.396,-0 4.375,0.833 5.938,2.487c1.562,1.658 2.35,3.588 2.35,5.8l-0,127.075Zm-8.288,-153.866c-3.862,-0 -6.766,-0.875 -8.704,-2.626c-1.925,-1.745 -2.9,-4.283 -2.9,-7.6l-0,-2.758c-0,-3.317 1.054,-5.85 3.175,-7.6c2.117,-1.742 5.017,-2.625 8.704,-2.625c3.496,0 6.221,0.883 8.146,2.625c1.937,1.75 2.9,4.283 2.9,7.6l0,2.758c0,3.317 -0.963,5.855 -2.9,7.6c-1.925,1.751 -4.737,2.626 -8.421,2.626Z" style="fill:#545e9c;fill-rule:nonzero;"/><path d="M1548.15,778.171c0,-11.229 -2.3,-21.225 -6.9,-29.967c-4.612,-8.746 -10.921,-15.658 -18.933,-20.721c-8.004,-5.066 -17.175,-7.6 -27.488,-7.6c-10.125,0 -19.2,2.534 -27.212,7.6c-8.004,5.063 -14.363,11.975 -19.054,20.721c-4.696,8.742 -7.046,18.738 -7.046,29.967c-0,11.237 2.35,21.187 7.046,29.833c4.691,8.663 11.05,15.517 19.054,20.579c8.012,5.071 17.087,7.6 27.212,7.6c10.313,0 19.484,-2.529 27.488,-7.6c8.012,-5.062 14.321,-11.916 18.933,-20.579c4.6,-8.646 6.9,-18.596 6.9,-29.833Zm16.575,-0c0,14 -3.087,26.571 -9.25,37.708c-6.175,11.142 -14.5,19.892 -25,26.242c-10.508,6.358 -22.383,9.533 -35.646,9.533c-13.075,0 -24.904,-3.175 -35.491,-9.533c-10.588,-6.35 -18.971,-15.1 -25.138,-26.242c-6.175,-11.137 -9.258,-23.708 -9.258,-37.708c-0,-14.179 3.083,-26.792 9.258,-37.85c6.167,-11.042 14.55,-19.792 25.138,-26.238c10.587,-6.441 22.416,-9.666 35.491,-9.666c13.263,-0 25.138,3.225 35.646,9.666c10.5,6.446 18.825,15.196 25,26.238c6.163,11.058 9.25,23.671 9.25,37.85Z" style="fill:#545e9c;fill-rule:nonzero;"/><path d="M1677.71,704.417c12.154,-0 21.867,2.446 29.142,7.321c7.275,4.879 12.525,11.512 15.75,19.891c3.221,8.375 4.833,17.633 4.833,27.758l0,81.217c0,2.213 -0.825,4.146 -2.483,5.8c-1.654,1.659 -3.592,2.488 -5.804,2.488c-2.583,-0 -4.6,-0.829 -6.083,-2.488c-1.467,-1.654 -2.201,-3.587 -2.201,-5.8l0,-80.387c0,-7.363 -1.204,-14.088 -3.591,-20.167c-2.4,-6.075 -6.313,-10.958 -11.738,-14.646c-5.437,-3.675 -12.575,-5.516 -21.412,-5.516c-7.925,-0 -15.434,1.841 -22.521,5.516c-7.092,3.688 -12.837,8.571 -17.263,14.646c-4.416,6.079 -6.629,12.804 -6.629,20.167l0,80.387c0,2.213 -0.833,4.146 -2.483,5.8c-1.663,1.659 -3.6,2.488 -5.804,2.488c-2.575,-0 -4.609,-0.829 -6.075,-2.488c-1.484,-1.654 -2.208,-3.587 -2.208,-5.8l-0,-123.762c-0,-2.204 0.783,-4.142 2.349,-5.792c1.563,-1.663 3.538,-2.487 5.934,-2.487c2.391,-0 4.367,0.824 5.937,2.487c1.563,1.65 2.35,3.588 2.35,5.792l0,23.208l-6.358,9.95c0.371,-5.896 2.258,-11.558 5.671,-16.996c3.404,-5.429 7.779,-10.312 13.116,-14.642c5.338,-4.32 11.284,-7.737 17.821,-10.212c6.538,-2.496 13.117,-3.733 19.75,-3.733Z" style="fill:#545e9c;fill-rule:nonzero;"/><path d="M1952.03,985.425l-1947.12,-0c-1.296,-0 -2.346,-1.329 -2.346,-2.967c-0,-1.637 1.05,-2.962 2.346,-2.962l1947.12,-0c1.296,-0 2.346,1.325 2.346,2.962c0,1.638 -1.05,2.967 -2.346,2.967Z" style="fill:#f37366;fill-rule:nonzero;"/><path d="M27.942,1098.88l12.225,29.863l-24.275,-0l12.05,-29.863Zm-14.059,35.017l28.379,-0l6.551,15.979c0.262,0.525 0.612,0.963 1.05,1.225c0.437,0.35 0.87,0.521 1.483,0.521c0.7,-0 1.308,-0.258 1.833,-0.696c0.525,-0.437 0.788,-1.05 0.788,-1.833c-0,-0.35 -0.088,-0.7 -0.175,-1.05l-22.967,-56.15c-0.262,-0.525 -0.525,-0.963 -0.963,-1.313c-0.433,-0.258 -0.958,-0.433 -1.57,-0.433c-0.613,-0 -1.046,0.087 -1.484,0.35c-0.437,0.258 -0.875,0.783 -1.137,1.396l-23.054,56.412c-0.088,0.438 -0.175,0.788 -0.088,1.05c0.088,0.609 0.263,1.134 0.7,1.571c0.438,0.438 1.046,0.696 1.834,0.696c0.524,-0 0.962,-0.171 1.395,-0.434c0.438,-0.262 0.7,-0.699 0.963,-1.312l6.462,-15.979Z" style="fill:#545e9c;fill-rule:nonzero;"/><path d="M108.371,1113.03c2.529,1.571 4.45,3.754 5.937,6.463c1.484,2.791 2.184,6.025 2.184,9.604c-0,3.583 -0.7,6.812 -2.184,9.521c-1.487,2.791 -3.408,4.974 -5.937,6.55c-2.534,1.57 -5.329,2.354 -8.559,2.354c-3.233,-0 -6.029,-0.784 -8.558,-2.442c-2.533,-1.575 -4.541,-3.758 -5.941,-6.55c-1.484,-2.796 -2.18,-5.937 -2.18,-9.433c0,-3.492 0.696,-6.638 2.18,-9.43c1.4,-2.708 3.408,-4.891 5.941,-6.549c2.529,-1.571 5.325,-2.359 8.558,-2.359c3.23,0 6.025,0.788 8.559,2.271Zm-19.913,-4.192c-3.229,2.009 -5.762,4.804 -7.596,8.296c-1.92,3.579 -2.883,7.509 -2.883,11.963c0,4.454 0.963,8.47 2.883,11.966c1.834,3.492 4.367,6.288 7.596,8.296c3.229,2.009 6.813,3.054 10.83,3.054c1.833,0 3.754,-0.262 5.674,-0.871c1.834,-0.524 3.58,-1.312 5.242,-2.445c1.659,-1.05 3.054,-2.359 4.279,-3.929c0.609,-0.875 1.134,-1.75 1.571,-2.796l0,5.412c0,4.892 -1.396,8.821 -4.279,11.792c-2.883,3.054 -6.987,4.541 -12.225,4.541c-1.488,0 -2.971,-0.174 -4.279,-0.437c-1.4,-0.263 -2.621,-0.525 -3.584,-0.875c-0.958,-0.35 -1.745,-0.613 -2.354,-0.783c-1.312,-0.525 -2.27,-0.963 -2.883,-1.313c-0.613,-0.262 -1.221,-0.262 -1.833,0.175c-0.438,0.35 -0.7,0.788 -0.7,1.225c-0.088,0.521 0.175,1.046 0.612,1.571c0.175,0.871 1.046,1.746 2.709,2.533c1.57,0.784 3.491,1.484 5.762,2.009c2.183,0.52 4.367,0.783 6.375,0.783c4.192,0 7.946,-0.871 11.262,-2.533c3.234,-1.659 5.855,-4.017 7.776,-7.246c1.92,-3.233 2.879,-7.163 2.879,-11.788l-0,-37.816c-0,-0.784 -0.259,-1.396 -0.696,-1.921c-0.438,-0.521 -1.138,-0.783 -1.921,-0.783c-0.788,-0 -1.4,0.262 -1.833,0.783c-0.525,0.525 -0.788,1.137 -0.788,1.921l0,5.504c-0.962,-1.571 -2.183,-2.971 -3.754,-4.454c-1.663,-1.396 -3.671,-2.534 -5.854,-3.492c-2.183,-0.875 -4.625,-1.313 -7.246,-1.313c-4.017,0 -7.6,0.963 -10.742,2.971Z" style="fill:#545e9c;fill-rule:nonzero;"/><path d="M136.225,1150.75c0.525,-0.525 0.787,-1.133 0.787,-1.833l0,-21.571c0,-2.008 0.438,-4.104 1.221,-6.113c0.788,-2.008 1.834,-3.754 3.146,-5.412c1.308,-1.663 2.796,-2.971 4.454,-3.934c1.659,-0.958 3.23,-1.395 4.888,-1.395c0.962,-0 1.837,0.175 2.446,0.437c0.612,0.263 1.137,0.438 1.658,0.438c0.613,-0 1.225,-0.263 1.662,-0.7c0.434,-0.438 0.696,-1.134 0.696,-2.009c0,-0.962 -0.521,-1.745 -1.483,-2.183c-0.958,-0.437 -2.008,-0.613 -3.054,-0.613c-2.533,0 -4.717,0.525 -6.725,1.575c-2.008,1.046 -3.759,2.442 -5.242,4.105c-1.483,1.658 -2.621,3.491 -3.404,5.5l-0.263,0.787l0,-8.037c0,-0.696 -0.262,-1.309 -0.699,-1.834c-0.521,-0.521 -1.134,-0.783 -1.921,-0.783c-0.784,0 -1.396,0.262 -1.834,0.783c-0.525,0.525 -0.787,1.138 -0.787,1.834l-0,39.125c-0,0.7 0.262,1.308 0.7,1.833c0.437,0.525 1.137,0.787 1.921,0.787c0.7,0 1.312,-0.262 1.833,-0.787Z" style="fill:#545e9c;fill-rule:nonzero;"/><path d="M171.246,1145.08c-2.358,-1.575 -4.279,-3.758 -5.592,-6.638c-1.396,-2.795 -2.096,-5.937 -2.096,-9.433c0,-3.579 0.7,-6.721 2.096,-9.429c1.313,-2.708 3.234,-4.892 5.679,-6.462c2.355,-1.571 5.063,-2.359 8.121,-2.359c3.054,0 5.85,0.788 8.209,2.446c2.358,1.658 4.279,3.842 5.675,6.55c1.308,2.704 2.008,5.85 2.008,9.254c-0,3.496 -0.7,6.638 -2.008,9.433c-1.396,2.88 -3.317,5.063 -5.675,6.638c-2.359,1.658 -5.155,2.446 -8.209,2.446c-3.058,-0 -5.854,-0.788 -8.208,-2.446Zm24.537,-37.379c-0.525,0.525 -0.787,1.137 -0.787,1.925l-0,5.412c-0.871,-1.571 -1.921,-3.058 -3.317,-4.279c-1.658,-1.483 -3.491,-2.708 -5.675,-3.579c-2.183,-0.875 -4.542,-1.313 -7.075,-1.313c-3.929,0 -7.425,0.963 -10.479,2.971c-3.058,2.009 -5.5,4.717 -7.338,8.121c-1.833,3.492 -2.704,7.509 -2.704,12.05c0,4.454 0.871,8.383 2.704,11.967c1.751,3.579 4.192,6.375 7.338,8.383c3.054,2.009 6.637,3.054 10.567,3.054c2.445,0 4.716,-0.437 6.9,-1.395c2.096,-0.876 3.929,-2.009 5.5,-3.492c1.483,-1.4 2.708,-2.884 3.579,-4.454l-0,5.85c-0,0.7 0.262,1.308 0.787,1.833c0.438,0.525 1.046,0.787 1.834,0.787c0.7,0 1.308,-0.262 1.833,-0.787c0.525,-0.525 0.787,-1.133 0.787,-1.833l0,-39.296c0,-0.788 -0.262,-1.4 -0.7,-1.925c-0.524,-0.521 -1.133,-0.783 -1.92,-0.783c-0.788,-0 -1.396,0.262 -1.834,0.783Z" style="fill:#545e9c;fill-rule:nonzero;"/><path d="M225.475,1107c-2.096,0.783 -4.017,1.921 -5.679,3.229c-1.571,1.313 -2.879,2.796 -3.929,4.367l-0,-4.804c-0,-0.696 -0.263,-1.309 -0.696,-1.834c-0.525,-0.521 -1.138,-0.783 -1.925,-0.783c-0.783,0 -1.396,0.262 -1.834,0.783c-0.52,0.525 -0.783,1.138 -0.783,1.834l0,39.125c0,0.7 0.263,1.308 0.696,1.833c0.438,0.525 1.138,0.787 1.921,0.787c0.7,0 1.312,-0.262 1.837,-0.787c0.521,-0.525 0.784,-1.133 0.784,-1.833l-0,-25.413c-0,-2.358 0.7,-4.454 2.096,-6.375c1.399,-1.921 3.233,-3.492 5.504,-4.629c2.183,-1.133 4.537,-1.746 7.07,-1.746c2.796,0 5.067,0.613 6.813,1.746c1.658,1.137 2.883,2.708 3.667,4.629c0.787,1.921 1.137,4.017 1.137,6.375l0,25.413c0,0.7 0.263,1.308 0.696,1.833c0.437,0.525 1.137,0.787 1.925,0.787c0.696,0 1.308,-0.262 1.833,-0.787c0.521,-0.525 0.784,-1.133 0.784,-1.833l-0,-25.675c-0,-3.229 -0.521,-6.113 -1.484,-8.821c-1.05,-2.617 -2.708,-4.713 -4.979,-6.288c-2.358,-1.483 -5.412,-2.271 -9.254,-2.271c-2.096,0 -4.192,0.351 -6.2,1.138Z" style="fill:#545e9c;fill-rule:nonzero;"/><path d="M262.063,1095.56c-0.525,0.525 -0.788,1.138 -0.788,1.834l0,9.696l-6.375,-0c-0.696,-0 -1.308,0.262 -1.746,0.695c-0.521,0.438 -0.783,1.05 -0.783,1.75c-0,0.609 0.262,1.221 0.783,1.659c0.438,0.525 1.05,0.783 1.746,0.783l6.375,-0l0,29.517c0,2.62 0.35,4.629 1.138,6.029c0.699,1.396 1.57,2.354 2.708,2.879c1.133,0.613 2.183,0.875 3.229,0.963c1.05,0.087 1.833,0.174 2.358,0.174c1.309,0 2.359,-0.262 3.317,-0.875c0.963,-0.525 1.4,-1.22 1.4,-2.008c-0,-0.612 -0.175,-1.133 -0.525,-1.571c-0.437,-0.437 -0.875,-0.612 -1.396,-0.612c-0.437,-0 -0.875,0.087 -1.225,0.175c-0.437,0.175 -0.871,0.262 -1.308,0.262c-0.7,0 -1.396,-0.175 -2.096,-0.437c-0.7,-0.263 -1.225,-0.788 -1.658,-1.571c-0.438,-0.788 -0.7,-2.008 -0.7,-3.667l-0,-29.258l8.733,-0c0.696,-0 1.308,-0.258 1.746,-0.696c0.437,-0.437 0.7,-1.05 0.7,-1.658c-0,-0.7 -0.263,-1.313 -0.7,-1.838c-0.438,-0.433 -1.05,-0.695 -1.746,-0.695l-8.733,-0l-0,-9.696c-0,-0.696 -0.263,-1.309 -0.7,-1.834c-0.521,-0.52 -1.134,-0.783 -1.921,-0.783c-0.784,0 -1.396,0.263 -1.833,0.783Z" style="fill:#545e9c;fill-rule:nonzero;"/><path d="M303.629,1126.82c0.7,-0 1.308,-0.258 1.833,-0.784c0.525,-0.437 0.788,-1.05 0.788,-1.745c-0,-0.788 -0.263,-1.4 -0.788,-1.921c-0.525,-0.525 -1.133,-0.788 -1.833,-0.788l-18.862,0c-0.7,0 -1.309,0.263 -1.746,0.7c-0.525,0.521 -0.788,1.134 -0.788,1.834c0,0.783 0.263,1.396 0.788,1.92c0.437,0.525 1.046,0.784 1.746,0.784l18.862,-0Z" style="fill:#545e9c;fill-rule:nonzero;"/><path d="M328.604,1107.79c-2.008,0.87 -3.841,2.008 -5.412,3.404c-1.313,1.133 -2.359,2.358 -3.146,3.754l-0,-5.15c-0,-0.7 -0.263,-1.313 -0.696,-1.838c-0.525,-0.521 -1.137,-0.783 -1.925,-0.783c-0.783,0 -1.396,0.262 -1.833,0.783c-0.521,0.525 -0.784,1.138 -0.784,1.838l0,39.121c0,0.7 0.263,1.308 0.696,1.833c0.438,0.525 1.138,0.787 1.921,0.787c0.7,0 1.313,-0.262 1.838,-0.787c0.52,-0.525 0.783,-1.133 0.783,-1.833l-0,-24.713c-0,-2.358 0.7,-4.542 2.008,-6.462c1.313,-1.921 2.971,-3.496 5.154,-4.629c2.096,-1.134 4.367,-1.659 6.725,-1.659c2.704,0 4.8,0.525 6.375,1.659c1.571,1.133 2.704,2.708 3.404,4.629c0.7,1.92 1.046,4.104 1.046,6.462l0,24.713c0,0.7 0.263,1.308 0.788,1.833c0.437,0.525 1.05,0.787 1.833,0.787c0.788,0 1.4,-0.262 1.921,-0.787c0.437,-0.525 0.7,-1.133 0.7,-1.833l0,-24.45c0,-2.359 0.7,-4.542 2.096,-6.55c1.308,-2.009 3.142,-3.584 5.325,-4.717c2.183,-1.133 4.454,-1.746 6.812,-1.746c2.709,0 4.892,0.613 6.55,1.746c1.659,1.133 2.796,2.708 3.58,4.717c0.787,2.008 1.137,4.191 1.137,6.55l0,24.45c0,0.7 0.262,1.308 0.783,1.833c0.438,0.525 1.05,0.787 1.838,0.787c0.783,0 1.396,-0.262 1.921,-0.787c0.433,-0.525 0.695,-1.133 0.695,-1.833l0,-24.713c0,-3.321 -0.52,-6.287 -1.483,-8.996c-1.046,-2.621 -2.708,-4.716 -4.891,-6.287c-2.271,-1.571 -5.238,-2.359 -8.905,-2.359c-2.358,0 -4.629,0.438 -6.9,1.396c-2.27,0.963 -4.279,2.184 -6.025,3.671c-1.745,1.484 -2.971,3.142 -3.583,4.629c-1.046,-2.97 -2.617,-5.241 -4.8,-6.9c-2.533,-1.833 -5.679,-2.796 -9.258,-2.796c-2.184,0 -4.279,0.438 -6.288,1.226Z" style="fill:#545e9c;fill-rule:nonzero;"/><path d="M401.346,1145.08c-2.358,-1.571 -4.279,-3.754 -5.588,-6.638c-1.395,-2.795 -2.096,-5.937 -2.096,-9.433c0,-3.579 0.701,-6.721 2.096,-9.429c1.309,-2.708 3.23,-4.892 5.675,-6.462c2.359,-1.571 5.067,-2.359 8.121,-2.359c3.059,0 5.854,0.788 8.209,2.446c2.358,1.658 4.279,3.842 5.679,6.55c1.308,2.708 2.008,5.85 2.008,9.254c0,3.496 -0.7,6.638 -2.008,9.433c-1.4,2.884 -3.321,5.067 -5.679,6.638c-2.355,1.658 -5.15,2.446 -8.209,2.446c-3.054,-0 -5.85,-0.788 -8.208,-2.446Zm24.541,-37.375c-0.525,0.521 -0.787,1.133 -0.787,1.921l0,5.412c-0.875,-1.571 -1.921,-3.054 -3.317,-4.279c-1.662,-1.483 -3.496,-2.708 -5.679,-3.579c-2.183,-0.875 -4.541,-1.313 -7.071,-1.313c-3.933,0 -7.425,0.963 -10.479,2.971c-3.058,2.009 -5.504,4.717 -7.337,8.121c-1.834,3.496 -2.709,7.513 -2.709,12.05c0,4.454 0.875,8.388 2.709,11.967c1.745,3.579 4.191,6.375 7.337,8.383c3.054,2.009 6.634,3.054 10.567,3.054c2.442,0 4.712,-0.433 6.896,-1.395c2.096,-0.876 3.929,-2.009 5.504,-3.492c1.483,-1.4 2.704,-2.884 3.579,-4.454l0,5.85c0,0.7 0.262,1.308 0.787,1.833c0.434,0.525 1.046,0.787 1.834,0.787c0.696,0 1.308,-0.262 1.833,-0.787c0.525,-0.525 0.783,-1.133 0.783,-1.833l0,-39.296c0,-0.788 -0.258,-1.4 -0.695,-1.921c-0.525,-0.525 -1.138,-0.787 -1.921,-0.787c-0.788,-0 -1.4,0.262 -1.834,0.787Z" style="fill:#545e9c;fill-rule:nonzero;"/><path d="M475.925,1150.84c0.608,-0.438 0.958,-1.134 0.958,-1.921c0,-0.788 -0.262,-1.396 -0.783,-2.009l-18.95,-20.258l17.987,-15.283c0.613,-0.613 0.963,-1.225 0.963,-2.009c-0,-0.612 -0.263,-1.225 -0.788,-1.833c-0.525,-0.525 -1.133,-0.788 -1.745,-0.788c-0.7,0 -1.313,0.263 -1.834,0.875l-25.237,21.742l-0,-39.821c-0,-0.696 -0.263,-1.308 -0.7,-1.833c-0.525,-0.525 -1.133,-0.783 -1.921,-0.783c-0.787,-0 -1.396,0.258 -1.833,0.783c-0.525,0.525 -0.788,1.137 -0.788,1.833l0,59.384c0,0.7 0.263,1.308 0.788,1.833c0.437,0.525 1.046,0.787 1.833,0.787c0.788,0 1.396,-0.262 1.921,-0.787c0.437,-0.525 0.7,-1.133 0.7,-1.833l-0,-13.188l6.55,-5.587l19.296,20.433c0.525,0.612 1.137,0.962 1.92,0.962c0.438,0 1.05,-0.262 1.663,-0.699Z" style="fill:#545e9c;fill-rule:nonzero;"/><path d="M489.196,1108.75c-0,-0.696 -0.263,-1.309 -0.7,-1.833c-0.521,-0.526 -1.133,-0.788 -1.921,-0.788c-0.783,0 -1.396,0.262 -1.833,0.788c-0.525,0.524 -0.788,1.137 -0.788,1.833l0,40.171c0,0.7 0.263,1.308 0.788,1.833c0.437,0.525 1.05,0.787 1.833,0.787c0.7,0 1.313,-0.262 1.833,-0.787c0.525,-0.525 0.788,-1.133 0.788,-1.833l-0,-40.171Zm0.087,-9.342c0.613,-0.525 0.875,-1.312 0.875,-2.358l0,-0.875c0,-1.046 -0.262,-1.833 -0.875,-2.446c-0.612,-0.521 -1.483,-0.783 -2.62,-0.783c-1.134,-0 -2.096,0.262 -2.709,0.783c-0.696,0.613 -1.046,1.4 -1.046,2.446l0,0.875c0,1.046 0.35,1.833 0.963,2.358c0.608,0.609 1.483,0.871 2.704,0.871c1.138,-0 2.096,-0.262 2.708,-0.871Z" style="fill:#545e9c;fill-rule:nonzero;"/><path d="M514.346,1107c-2.096,0.788 -4.017,1.921 -5.675,3.233c-1.575,1.309 -2.884,2.792 -3.933,4.363l-0,-4.8c-0,-0.7 -0.259,-1.313 -0.696,-1.833c-0.525,-0.526 -1.138,-0.788 -1.921,-0.788c-0.788,0 -1.4,0.262 -1.833,0.788c-0.525,0.52 -0.788,1.133 -0.788,1.833l-0,39.121c-0,0.7 0.263,1.308 0.7,1.833c0.433,0.525 1.133,0.787 1.921,0.787c0.696,0 1.308,-0.262 1.833,-0.787c0.525,-0.525 0.784,-1.133 0.784,-1.833l-0,-25.413c-0,-2.358 0.7,-4.454 2.095,-6.375c1.4,-1.921 3.234,-3.492 5.504,-4.629c2.184,-1.133 4.542,-1.746 7.071,-1.746c2.796,0 5.067,0.613 6.813,1.746c1.658,1.137 2.883,2.708 3.666,4.629c0.788,1.921 1.138,4.017 1.138,6.375l-0,25.413c-0,0.7 0.263,1.308 0.7,1.833c0.433,0.525 1.133,0.787 1.921,0.787c0.696,0 1.308,-0.262 1.833,-0.787c0.525,-0.525 0.784,-1.133 0.784,-1.833l-0,-25.675c-0,-3.229 -0.521,-6.113 -1.484,-8.817c-1.046,-2.621 -2.708,-4.717 -4.979,-6.287c-2.354,-1.488 -5.413,-2.271 -9.254,-2.271c-2.096,-0 -4.192,0.346 -6.2,1.133Z" style="fill:#545e9c;fill-rule:nonzero;"/><path d="M574.425,1113.03c2.533,1.571 4.454,3.754 5.938,6.463c1.487,2.795 2.183,6.025 2.183,9.608c-0,3.579 -0.696,6.808 -2.183,9.517c-1.484,2.795 -3.405,4.979 -5.938,6.55c-2.533,1.57 -5.325,2.358 -8.558,2.358c-3.229,-0 -6.025,-0.788 -8.559,-2.446c-2.533,-1.571 -4.541,-3.754 -5.937,-6.55c-1.483,-2.796 -2.184,-5.937 -2.184,-9.429c0,-3.496 0.701,-6.638 2.184,-9.434c1.396,-2.708 3.404,-4.891 5.937,-6.549c2.534,-1.571 5.33,-2.359 8.559,-2.359c3.233,0 6.025,0.788 8.558,2.271Zm-19.908,-4.192c-3.234,2.009 -5.767,4.804 -7.6,8.296c-1.921,3.583 -2.879,7.513 -2.879,11.967c-0,4.45 0.958,8.471 2.879,11.962c1.833,3.492 4.366,6.288 7.6,8.296c3.229,2.009 6.808,3.054 10.825,3.054c1.837,0 3.758,-0.258 5.679,-0.871c1.833,-0.524 3.579,-1.308 5.237,-2.445c1.659,-1.046 3.059,-2.359 4.279,-3.929c0.613,-0.875 1.138,-1.746 1.571,-2.796l0,5.416c0,4.888 -1.395,8.817 -4.279,11.788c-2.879,3.058 -6.983,4.541 -12.225,4.541c-1.483,0 -2.966,-0.174 -4.279,-0.437c-1.396,-0.263 -2.617,-0.525 -3.579,-0.871c-0.963,-0.35 -1.746,-0.612 -2.359,-0.787c-1.308,-0.525 -2.27,-0.963 -2.879,-1.309c-0.612,-0.262 -1.225,-0.262 -1.837,0.171c-0.433,0.35 -0.696,0.788 -0.696,1.225c-0.087,0.525 0.175,1.046 0.608,1.571c0.175,0.875 1.05,1.746 2.709,2.533c1.571,0.788 3.491,1.484 5.762,2.009c2.184,0.525 4.367,0.787 6.375,0.787c4.192,0 7.95,-0.875 11.267,-2.533c3.229,-1.659 5.85,-4.017 7.771,-7.25c1.921,-3.229 2.883,-7.159 2.883,-11.788l0,-37.812c0,-0.788 -0.262,-1.4 -0.7,-1.921c-0.433,-0.525 -1.133,-0.787 -1.921,-0.787c-0.783,-0 -1.396,0.262 -1.833,0.787c-0.525,0.521 -0.788,1.133 -0.788,1.921l0,5.5c-0.958,-1.571 -2.183,-2.967 -3.754,-4.454c-1.658,-1.396 -3.666,-2.529 -5.85,-3.492c-2.183,-0.875 -4.629,-1.308 -7.25,-1.308c-4.016,-0 -7.596,0.958 -10.737,2.966Z" style="fill:#545e9c;fill-rule:nonzero;"/><path d="M647.342,1113.73c2.358,1.571 4.191,3.667 5.587,6.375c1.4,2.708 2.096,5.762 2.096,9.171c-0,3.404 -0.696,6.546 -2.096,9.254c-1.396,2.708 -3.229,4.892 -5.587,6.375c-2.359,1.571 -5.15,2.358 -8.209,2.358c-3.141,0 -5.937,-0.787 -8.295,-2.358c-2.359,-1.483 -4.28,-3.667 -5.588,-6.375c-1.4,-2.708 -2.096,-5.85 -2.096,-9.254c0,-3.496 0.696,-6.55 2.096,-9.258c1.308,-2.621 3.229,-4.717 5.588,-6.288c2.358,-1.483 5.154,-2.271 8.295,-2.271c3.059,0 5.85,0.788 8.209,2.271Zm-13.446,-6.375c-1.838,0.525 -3.496,1.308 -4.979,2.271c-1.484,1.046 -2.796,2.271 -3.93,3.667c-0.612,0.787 -1.137,1.57 -1.4,2.62l0,-6.462c0,-0.788 -0.258,-1.396 -0.695,-1.921c-0.525,-0.525 -1.138,-0.788 -1.921,-0.788c-0.788,0 -1.488,0.263 -1.921,0.788c-0.438,0.525 -0.7,1.133 -0.7,1.921l0,56.937c0,0.7 0.262,1.309 0.788,1.834c0.433,0.525 1.045,0.787 1.833,0.787c0.783,0 1.396,-0.262 1.921,-0.787c0.437,-0.525 0.695,-1.134 0.695,-1.834l0,-23.404c0.263,0.788 0.7,1.396 1.226,2.008c1.133,1.484 2.533,2.709 4.016,3.755c1.483,1.05 3.229,1.833 5.067,2.445c1.833,0.613 3.754,0.963 5.762,0.963c3.842,-0 7.334,-0.963 10.392,-2.971c3.054,-2.008 5.5,-4.716 7.333,-8.121c1.834,-3.404 2.709,-7.337 2.709,-11.787c-0,-4.454 -0.875,-8.384 -2.709,-11.792c-1.833,-3.404 -4.191,-6.025 -7.245,-8.033c-3.059,-1.921 -6.638,-2.884 -10.567,-2.884c-2.009,0 -3.842,0.263 -5.675,0.788Z" style="fill:#545e9c;fill-rule:nonzero;"/><path d="M678.167,1145.08c-2.359,-1.571 -4.279,-3.754 -5.588,-6.638c-1.396,-2.791 -2.096,-5.937 -2.096,-9.429c0,-3.583 0.7,-6.725 2.096,-9.433c1.309,-2.708 3.229,-4.888 5.675,-6.462c2.359,-1.571 5.067,-2.359 8.121,-2.359c3.058,0 5.854,0.788 8.213,2.446c2.354,1.658 4.279,3.842 5.675,6.55c1.308,2.708 2.008,5.85 2.008,9.258c-0,3.492 -0.7,6.638 -2.008,9.429c-1.396,2.884 -3.321,5.067 -5.675,6.638c-2.359,1.658 -5.155,2.446 -8.213,2.446c-3.054,-0 -5.85,-0.788 -8.208,-2.446Zm24.541,-37.375c-0.525,0.525 -0.787,1.133 -0.787,1.921l-0,5.412c-0.875,-1.571 -1.921,-3.054 -3.317,-4.279c-1.662,-1.483 -3.496,-2.704 -5.679,-3.579c-2.183,-0.875 -4.542,-1.308 -7.071,-1.308c-3.929,-0 -7.425,0.958 -10.479,2.966c-3.058,2.009 -5.504,4.717 -7.338,8.121c-1.833,3.496 -2.708,7.513 -2.708,12.054c0,4.455 0.875,8.384 2.708,11.963c1.746,3.579 4.192,6.375 7.338,8.383c3.054,2.009 6.637,3.058 10.567,3.058c2.441,0 4.712,-0.437 6.896,-1.399c2.095,-0.871 3.933,-2.009 5.504,-3.492c1.483,-1.396 2.704,-2.884 3.579,-4.454l-0,5.85c-0,0.7 0.262,1.312 0.787,1.833c0.434,0.525 1.046,0.787 1.834,0.787c0.696,0 1.308,-0.262 1.833,-0.787c0.525,-0.521 0.787,-1.133 0.787,-1.833l0,-39.296c0,-0.788 -0.262,-1.396 -0.7,-1.921c-0.524,-0.525 -1.137,-0.787 -1.92,-0.787c-0.788,-0 -1.4,0.262 -1.834,0.787Z" style="fill:#545e9c;fill-rule:nonzero;"/><path d="M722.004,1150.75c0.525,-0.521 0.788,-1.133 0.788,-1.833l-0,-21.567c-0,-2.012 0.433,-4.108 1.221,-6.117c0.787,-2.008 1.833,-3.754 3.141,-5.412c1.313,-1.658 2.796,-2.971 4.454,-3.929c1.663,-0.963 3.234,-1.396 4.892,-1.396c0.962,-0 1.833,0.171 2.446,0.433c0.612,0.263 1.133,0.438 1.658,0.438c0.613,-0 1.221,-0.263 1.659,-0.7c0.437,-0.434 0.7,-1.134 0.7,-2.009c-0,-0.958 -0.526,-1.745 -1.484,-2.183c-0.962,-0.433 -2.008,-0.608 -3.058,-0.608c-2.533,-0 -4.717,0.52 -6.725,1.57c-2.009,1.046 -3.754,2.446 -5.238,4.105c-1.487,1.658 -2.621,3.491 -3.408,5.5l-0.258,0.787l-0,-8.033c-0,-0.7 -0.263,-1.313 -0.7,-1.833c-0.525,-0.526 -1.138,-0.788 -1.921,-0.788c-0.788,0 -1.4,0.262 -1.833,0.788c-0.526,0.52 -0.788,1.133 -0.788,1.833l0,39.121c0,0.7 0.262,1.312 0.7,1.833c0.433,0.525 1.133,0.787 1.921,0.787c0.696,0 1.308,-0.262 1.833,-0.787Z" style="fill:#545e9c;fill-rule:nonzero;"/><path d="M752.129,1095.56c-0.521,0.521 -0.783,1.134 -0.783,1.834l-0,9.692l-6.375,-0c-0.7,-0 -1.313,0.262 -1.746,0.7c-0.525,0.437 -0.788,1.045 -0.788,1.745c0,0.613 0.263,1.221 0.788,1.659c0.433,0.525 1.046,0.787 1.746,0.787l6.375,0l-0,29.517c-0,2.621 0.35,4.629 1.133,6.025c0.7,1.396 1.575,2.358 2.708,2.883c1.134,0.609 2.184,0.871 3.23,0.959c1.05,0.087 1.837,0.174 2.358,0.174c1.313,0 2.358,-0.262 3.321,-0.875c0.958,-0.52 1.396,-1.22 1.396,-2.008c-0,-0.608 -0.175,-1.133 -0.525,-1.571c-0.434,-0.437 -0.871,-0.612 -1.396,-0.612c-0.438,-0 -0.875,0.087 -1.221,0.175c-0.438,0.175 -0.875,0.262 -1.312,0.262c-0.696,0 -1.396,-0.175 -2.096,-0.437c-0.696,-0.258 -1.221,-0.783 -1.659,-1.571c-0.437,-0.783 -0.7,-2.008 -0.7,-3.667l0,-29.254l8.734,0c0.7,0 1.312,-0.262 1.746,-0.7c0.437,-0.437 0.7,-1.046 0.7,-1.658c-0,-0.7 -0.263,-1.309 -0.7,-1.833c-0.434,-0.438 -1.046,-0.7 -1.746,-0.7l-8.734,-0l0,-9.692c0,-0.7 -0.262,-1.313 -0.696,-1.834c-0.524,-0.524 -1.137,-0.787 -1.92,-0.787c-0.788,0 -1.4,0.263 -1.838,0.787Z" style="fill:#545e9c;fill-rule:nonzero;"/><path d="M788.983,1107c-2.096,0.788 -4.016,1.921 -5.675,3.233c-1.575,1.309 -2.883,2.792 -3.929,4.367l0,-4.804c0,-0.7 -0.262,-1.309 -0.7,-1.833c-0.525,-0.526 -1.137,-0.788 -1.921,-0.788c-0.787,0 -1.4,0.262 -1.833,0.788c-0.525,0.524 -0.788,1.133 -0.788,1.833l0,39.121c0,0.7 0.263,1.312 0.7,1.833c0.438,0.525 1.134,0.787 1.921,0.787c0.696,0 1.309,-0.262 1.834,-0.787c0.525,-0.521 0.787,-1.133 0.787,-1.833l0,-25.413c0,-2.354 0.696,-4.454 2.096,-6.375c1.396,-1.921 3.229,-3.492 5.5,-4.625c2.183,-1.137 4.542,-1.75 7.075,-1.75c2.792,0 5.063,0.613 6.808,1.75c1.663,1.133 2.884,2.704 3.671,4.625c0.783,1.921 1.133,4.021 1.133,6.375l0,25.413c0,0.7 0.263,1.312 0.7,1.833c0.438,0.525 1.134,0.787 1.921,0.787c0.696,0 1.309,-0.262 1.834,-0.787c0.525,-0.521 0.787,-1.133 0.787,-1.833l0,-25.671c0,-3.233 -0.525,-6.117 -1.487,-8.821c-1.046,-2.621 -2.705,-4.717 -4.975,-6.287c-2.359,-1.488 -5.417,-2.271 -9.259,-2.271c-2.095,-0 -4.191,0.35 -6.2,1.133Z" style="fill:#545e9c;fill-rule:nonzero;"/><path d="M850.637,1150.05c2.792,-1.487 5.063,-3.321 6.809,-5.417c0.612,-0.52 0.875,-1.133 0.875,-1.833c-0,-0.608 -0.175,-1.133 -0.613,-1.571c-0.437,-0.437 -0.958,-0.7 -1.57,-0.7c-0.613,0 -1.309,0.263 -1.921,0.788c-0.788,1.046 -1.834,2.008 -3.059,2.971c-1.22,0.958 -2.616,1.745 -4.279,2.354c-1.658,0.612 -3.492,0.875 -5.5,0.875c-3.667,-0 -6.812,-0.788 -9.433,-2.446c-2.704,-1.658 -4.713,-3.842 -6.113,-6.638c-1.395,-2.791 -2.095,-5.849 -2.095,-9.254l33.012,0c0.696,0 1.308,-0.262 1.833,-0.787c0.521,-0.438 0.784,-1.046 0.871,-1.746c-0.087,-3.404 -0.696,-6.375 -1.833,-8.908c-1.133,-2.534 -2.708,-4.717 -4.542,-6.55c-1.921,-1.746 -4.104,-3.054 -6.462,-4.017c-2.442,-0.871 -4.975,-1.308 -7.509,-1.308c-3.491,-0 -6.812,0.958 -9.866,2.791c-3.146,1.925 -5.68,4.63 -7.6,8.125c-2.009,3.492 -2.967,7.684 -2.967,12.663c-0,4.625 0.958,8.641 2.879,12.05c1.921,3.404 4.629,6.112 8.038,8.033c3.404,1.921 7.42,2.883 11.875,2.883c3.316,0 6.375,-0.787 9.17,-2.358Zm-26.462,-25.587c0.175,-1.309 0.525,-2.446 0.963,-3.58c0.958,-2.27 2.183,-4.191 3.666,-5.679c1.483,-1.483 3.142,-2.529 4.979,-3.229c1.834,-0.7 3.579,-1.05 5.325,-1.05c2.359,0 4.542,0.525 6.725,1.488c2.184,0.958 4.017,2.441 5.5,4.366c1.484,1.921 2.359,4.28 2.621,6.984l0,0.7l-29.779,-0Z" style="fill:#545e9c;fill-rule:nonzero;"/><path d="M871.767,1150.75c0.525,-0.521 0.783,-1.133 0.783,-1.833l0,-21.567c0,-2.008 0.437,-4.104 1.225,-6.117c0.783,-2.008 1.833,-3.754 3.142,-5.412c1.312,-1.658 2.795,-2.971 4.454,-3.929c1.658,-0.963 3.233,-1.396 4.892,-1.396c0.958,-0 1.833,0.171 2.445,0.433c0.609,0.263 1.134,0.438 1.659,0.438c0.612,-0 1.221,-0.263 1.658,-0.7c0.437,-0.434 0.7,-1.134 0.7,-2.009c-0,-0.958 -0.525,-1.745 -1.483,-2.183c-0.963,-0.433 -2.013,-0.608 -3.059,-0.608c-2.533,-0 -4.716,0.525 -6.725,1.57c-2.008,1.05 -3.754,2.446 -5.237,4.105c-1.488,1.658 -2.621,3.491 -3.408,5.5l-0.263,0.787l0,-8.033c0,-0.7 -0.258,-1.309 -0.696,-1.833c-0.525,-0.526 -1.137,-0.788 -1.921,-0.788c-0.787,0 -1.4,0.262 -1.833,0.788c-0.525,0.524 -0.788,1.133 -0.788,1.833l0,39.121c0,0.7 0.263,1.312 0.7,1.833c0.434,0.525 1.134,0.787 1.921,0.787c0.696,0 1.309,-0.262 1.834,-0.787Z" style="fill:#545e9c;fill-rule:nonzero;"/><path d="M916.217,1107.79c-0.613,-0 -1.225,0.175 -1.663,0.612c-0.521,0.433 -0.783,1.046 -0.783,1.833c-0,0.609 0.262,1.221 0.783,1.659c0.438,0.525 1.05,0.787 1.663,0.787l6.375,0l-0,36.238c-0,0.7 0.258,1.312 0.783,1.833c0.437,0.525 1.05,0.787 1.833,0.787c0.788,0 1.4,-0.262 1.921,-0.787c0.438,-0.521 0.7,-1.133 0.7,-1.833l0,-36.238l9.779,0c0.7,0 1.313,-0.262 1.75,-0.7c0.434,-0.437 0.696,-1.05 0.696,-1.746c0,-0.7 -0.262,-1.312 -0.696,-1.746c-0.437,-0.437 -1.05,-0.699 -1.75,-0.699l-9.779,-0l0,-8.996c0,-1.484 0.263,-2.709 0.7,-3.754c0.438,-0.963 1.134,-1.746 2.008,-2.359c0.871,-0.525 1.921,-0.787 3.142,-0.787c0.963,-0 1.921,0.175 2.796,0.437c0.875,0.35 1.571,0.525 2.183,0.525c0.613,0 1.134,-0.262 1.571,-0.787c0.438,-0.434 0.7,-1.046 0.7,-1.659c0,-0.87 -0.35,-1.571 -1.137,-2.008c-0.784,-0.437 -1.659,-0.7 -2.617,-0.875c-1.05,-0.171 -2.008,-0.258 -2.883,-0.258c-3.405,-0 -6.2,0.958 -8.384,2.966c-2.183,2.009 -3.316,4.805 -3.316,8.559l-0,8.996l-6.375,-0Z" style="fill:#545e9c;fill-rule:nonzero;"/><path d="M981.708,1117.22c-1.92,-3.492 -4.537,-6.288 -7.858,-8.296c-3.317,-2.008 -7.071,-3.054 -11.35,-3.054c-4.104,-0 -7.862,1.046 -11.179,3.054c-3.409,2.008 -6.025,4.804 -7.946,8.296c-2.008,3.495 -2.971,7.512 -2.971,11.966c0,4.454 0.963,8.384 2.971,11.875c1.921,3.579 4.537,6.288 7.946,8.296c3.317,2.009 7.075,3.058 11.179,3.058c4.279,0 8.033,-1.049 11.35,-3.058c3.321,-2.008 5.938,-4.717 7.858,-8.296c1.925,-3.491 2.884,-7.421 2.884,-11.875c-0,-4.454 -0.959,-8.471 -2.884,-11.966Zm-4.537,21.396c-1.488,2.708 -3.408,4.891 -5.942,6.462c-2.529,1.658 -5.5,2.446 -8.729,2.446c-3.146,-0 -6.029,-0.788 -8.558,-2.446c-2.534,-1.571 -4.542,-3.754 -6.03,-6.462c-1.483,-2.709 -2.266,-5.851 -2.266,-9.43c-0,-3.583 0.783,-6.725 2.266,-9.521c1.488,-2.708 3.496,-4.887 6.03,-6.549c2.529,-1.571 5.412,-2.359 8.558,-2.359c3.229,0 6.2,0.788 8.729,2.359c2.534,1.662 4.454,3.841 5.942,6.549c1.483,2.796 2.183,5.938 2.183,9.521c0,3.579 -0.7,6.721 -2.183,9.43Z" style="fill:#545e9c;fill-rule:nonzero;"/><path d="M996.904,1150.75c0.525,-0.521 0.788,-1.133 0.788,-1.833l-0,-21.567c-0,-2.008 0.433,-4.104 1.22,-6.117c0.788,-2.008 1.834,-3.754 3.146,-5.412c1.309,-1.658 2.792,-2.971 4.45,-3.929c1.663,-0.963 3.234,-1.396 4.892,-1.396c0.962,-0 1.833,0.171 2.446,0.433c0.612,0.263 1.133,0.438 1.658,0.438c0.613,-0 1.225,-0.263 1.659,-0.7c0.437,-0.434 0.7,-1.134 0.7,-2.009c-0,-0.958 -0.526,-1.745 -1.484,-2.183c-0.962,-0.433 -2.008,-0.608 -3.058,-0.608c-2.533,-0 -4.717,0.525 -6.725,1.57c-2.009,1.05 -3.754,2.446 -5.238,4.105c-1.483,1.658 -2.62,3.491 -3.404,5.5l-0.262,0.787l-0,-8.033c-0,-0.7 -0.263,-1.309 -0.7,-1.833c-0.525,-0.526 -1.134,-0.788 -1.921,-0.788c-0.788,0 -1.396,0.262 -1.834,0.788c-0.524,0.524 -0.787,1.133 -0.787,1.833l0,39.121c0,0.7 0.263,1.312 0.7,1.833c0.437,0.525 1.133,0.787 1.921,0.787c0.7,0 1.308,-0.262 1.833,-0.787Z" style="fill:#545e9c;fill-rule:nonzero;"/><path d="M1047.55,1095.56c-0.525,0.521 -0.787,1.134 -0.787,1.834l-0,9.692l-6.375,-0c-0.696,-0 -1.309,0.262 -1.746,0.7c-0.525,0.437 -0.788,1.045 -0.788,1.745c0,0.613 0.263,1.221 0.788,1.659c0.437,0.525 1.05,0.787 1.746,0.787l6.375,0l-0,29.517c-0,2.621 0.35,4.629 1.137,6.025c0.696,1.396 1.571,2.358 2.704,2.883c1.138,0.609 2.184,0.871 3.234,0.959c1.046,0.087 1.833,0.174 2.358,0.174c1.308,0 2.358,-0.262 3.317,-0.875c0.962,-0.52 1.4,-1.22 1.4,-2.008c-0,-0.608 -0.175,-1.133 -0.525,-1.571c-0.438,-0.437 -0.875,-0.612 -1.4,-0.612c-0.434,-0 -0.871,0.087 -1.221,0.175c-0.438,0.175 -0.875,0.262 -1.309,0.262c-0.7,0 -1.4,-0.175 -2.095,-0.437c-0.7,-0.258 -1.225,-0.783 -1.663,-1.571c-0.433,-0.783 -0.696,-2.008 -0.696,-3.667l0,-29.254l8.734,0c0.695,0 1.308,-0.262 1.745,-0.7c0.438,-0.437 0.696,-1.046 0.696,-1.658c0,-0.7 -0.258,-1.309 -0.696,-1.833c-0.437,-0.438 -1.05,-0.7 -1.745,-0.7l-8.734,-0l0,-9.692c0,-0.7 -0.262,-1.313 -0.7,-1.834c-0.525,-0.524 -1.133,-0.787 -1.921,-0.787c-0.787,0 -1.395,0.263 -1.833,0.787Z" style="fill:#545e9c;fill-rule:nonzero;"/><path d="M1083.88,1107.7c-2.008,0.787 -3.754,1.921 -5.412,3.229c-1.571,1.313 -2.796,2.708 -3.667,4.279l-0,-25.67c-0,-0.701 -0.262,-1.313 -0.7,-1.838c-0.525,-0.521 -1.138,-0.783 -1.921,-0.783c-0.787,-0 -1.4,0.262 -1.833,0.783c-0.525,0.525 -0.788,1.137 -0.788,1.838l0,59.379c0,0.7 0.263,1.312 0.7,1.833c0.434,0.525 1.134,0.787 1.921,0.787c0.696,0 1.308,-0.262 1.834,-0.787c0.525,-0.521 0.787,-1.133 0.787,-1.833l-0,-24.713c-0,-2.358 0.696,-4.542 2.008,-6.462c1.309,-1.921 3.142,-3.492 5.325,-4.629c2.184,-1.134 4.455,-1.659 6.9,-1.659c2.704,0 4.888,0.525 6.55,1.659c1.659,1.137 2.792,2.708 3.58,4.629c0.7,1.92 1.045,4.104 1.045,6.462l0,24.713c0,0.7 0.263,1.312 0.7,1.833c0.438,0.525 1.138,0.787 1.921,0.787c0.7,0 1.313,-0.262 1.833,-0.787c0.525,-0.521 0.788,-1.133 0.788,-1.833l0,-24.713c0,-3.229 -0.525,-6.2 -1.571,-8.908c-1.137,-2.704 -2.796,-4.8 -5.067,-6.375c-2.27,-1.571 -5.237,-2.359 -8.908,-2.359c-2.008,0 -4.016,0.351 -6.025,1.138Z" style="fill:#545e9c;fill-rule:nonzero;"/><path d="M1145.18,1150.05c2.796,-1.487 5.067,-3.321 6.813,-5.417c0.608,-0.52 0.871,-1.133 0.871,-1.833c-0,-0.608 -0.175,-1.133 -0.609,-1.571c-0.437,-0.437 -0.962,-0.7 -1.575,-0.7c-0.608,0 -1.308,0.263 -1.92,0.788c-0.784,1.046 -1.834,2.008 -3.055,2.971c-1.225,0.958 -2.62,1.745 -4.279,2.354c-1.658,0.612 -3.496,0.875 -5.504,0.875c-3.667,-0 -6.808,-0.788 -9.429,-2.446c-2.708,-1.658 -4.717,-3.842 -6.113,-6.638c-1.4,-2.791 -2.095,-5.849 -2.095,-9.254l33.008,0c0.7,0 1.308,-0.262 1.833,-0.787c0.525,-0.438 0.788,-1.046 0.875,-1.746c-0.087,-3.404 -0.7,-6.375 -1.833,-8.908c-1.138,-2.534 -2.708,-4.717 -4.542,-6.55c-1.921,-1.746 -4.104,-3.054 -6.462,-4.017c-2.446,-0.871 -4.98,-1.308 -7.513,-1.308c-3.491,-0 -6.808,0.958 -9.866,2.791c-3.142,1.925 -5.676,4.63 -7.596,8.125c-2.009,3.492 -2.971,7.684 -2.971,12.663c-0,4.625 0.962,8.641 2.883,12.05c1.921,3.404 4.629,6.112 8.033,8.033c3.405,1.921 7.421,2.883 11.876,2.883c3.32,0 6.375,-0.787 9.17,-2.358Zm-26.458,-25.587c0.171,-1.309 0.521,-2.446 0.958,-3.58c0.963,-2.27 2.184,-4.191 3.667,-5.679c1.487,-1.483 3.146,-2.529 4.979,-3.229c1.834,-0.7 3.579,-1.05 5.325,-1.05c2.359,0 4.542,0.525 6.725,1.488c2.183,0.958 4.017,2.441 5.504,4.366c1.484,1.921 2.359,4.28 2.617,6.984l0,0.7l-29.775,-0Z" style="fill:#545e9c;fill-rule:nonzero;"/><path d="M1187.71,1150.58c2.88,1.221 5.938,1.833 9.08,1.833c2.883,0 5.591,-0.524 7.95,-1.487c2.354,-0.958 4.275,-2.442 5.762,-4.279c1.396,-1.833 2.096,-4.104 2.096,-6.633c-0,-2.184 -0.35,-4.021 -1.137,-5.505c-0.784,-1.483 -1.834,-2.708 -3.142,-3.666c-1.313,-0.963 -2.884,-1.746 -4.542,-2.359c-1.746,-0.612 -3.579,-1.22 -5.412,-1.658c-2.184,-0.612 -4.192,-1.225 -5.942,-1.921c-1.833,-0.7 -3.229,-1.575 -4.279,-2.621c-1.134,-1.05 -1.746,-2.446 -1.834,-4.104c0,-1.833 0.526,-3.233 1.488,-4.367c0.958,-1.133 2.267,-1.92 3.754,-2.533c1.484,-0.525 3.054,-0.783 4.717,-0.783c2.183,-0 4.279,0.433 6.2,1.221c1.921,0.787 3.579,2.008 4.975,3.579c0.437,0.437 0.962,0.7 1.571,0.7c0.612,-0 1.137,-0.175 1.575,-0.525c0.608,-0.525 0.871,-1.134 0.871,-1.834c-0,-0.612 -0.263,-1.22 -0.784,-1.745c-1.312,-1.484 -2.708,-2.709 -4.366,-3.58c-1.659,-0.875 -3.321,-1.487 -4.98,-1.92c-1.658,-0.35 -3.229,-0.525 -4.716,-0.525c-2.879,-0 -5.5,0.525 -7.771,1.57c-2.359,1.05 -4.192,2.534 -5.5,4.367c-1.313,1.833 -2.009,4.017 -2.009,6.463c0,2.096 0.434,3.841 1.309,5.325c0.875,1.487 2.008,2.708 3.492,3.671c1.4,1.045 3.058,1.92 4.891,2.529c1.833,0.7 3.754,1.312 5.763,1.837c1.833,0.433 3.67,1.046 5.329,1.659c1.658,0.608 2.967,1.483 4.016,2.616c1.046,1.138 1.571,2.533 1.571,4.367c0,1.75 -0.525,3.146 -1.571,4.279c-1.049,1.138 -2.358,2.008 -3.929,2.533c-1.658,0.613 -3.233,0.875 -4.891,0.875c-3.059,0 -5.763,-0.612 -7.946,-1.921c-2.271,-1.224 -4.192,-2.883 -5.763,-4.891c-0.525,-0.525 -1.05,-0.788 -1.662,-0.875c-0.609,-0.088 -1.221,0.087 -1.658,0.525c-0.7,0.437 -1.046,0.962 -1.046,1.571c-0.088,0.7 0.175,1.4 0.608,2.096c2.271,2.883 4.892,4.891 7.862,6.116Z" style="fill:#545e9c;fill-rule:nonzero;"/><path d="M1258.7,1117.22c-1.921,-3.492 -4.537,-6.288 -7.858,-8.296c-3.317,-2.008 -7.071,-3.054 -11.35,-3.054c-4.104,-0 -7.863,1.046 -11.179,3.054c-3.404,2.008 -6.025,4.804 -7.946,8.296c-2.008,3.495 -2.971,7.512 -2.971,11.966c-0,4.454 0.963,8.384 2.971,11.875c1.921,3.579 4.542,6.288 7.946,8.296c3.316,2.009 7.075,3.058 11.179,3.058c4.279,0 8.033,-1.049 11.35,-3.058c3.321,-2.008 5.937,-4.717 7.858,-8.296c1.925,-3.491 2.884,-7.421 2.884,-11.875c-0,-4.454 -0.959,-8.471 -2.884,-11.966Zm-4.537,21.396c-1.488,2.708 -3.409,4.891 -5.942,6.462c-2.529,1.658 -5.5,2.446 -8.729,2.446c-3.146,-0 -6.029,-0.788 -8.559,-2.446c-2.533,-1.571 -4.541,-3.754 -6.024,-6.462c-1.488,-2.709 -2.271,-5.851 -2.271,-9.43c-0,-3.583 0.783,-6.725 2.271,-9.521c1.483,-2.708 3.491,-4.887 6.024,-6.549c2.53,-1.571 5.413,-2.359 8.559,-2.359c3.229,0 6.2,0.788 8.729,2.359c2.533,1.662 4.454,3.841 5.942,6.549c1.483,2.796 2.183,5.938 2.183,9.521c-0,3.579 -0.7,6.721 -2.183,9.43Z" style="fill:#545e9c;fill-rule:nonzero;"/><path d="M1277.48,1109.01c-3.404,2.184 -6.025,4.98 -7.858,8.471c-1.833,3.496 -2.796,7.338 -2.796,11.617c-0,4.454 0.963,8.383 2.796,11.875c1.833,3.579 4.366,6.375 7.683,8.383c3.234,2.009 7.075,3.058 11.442,3.058c3.058,0 5.85,-0.437 8.208,-1.312c2.358,-0.783 4.279,-1.833 5.675,-2.967c1.313,-1.137 2.009,-2.096 2.009,-3.058c-0,-0.7 -0.171,-1.308 -0.521,-1.746c-0.438,-0.437 -0.963,-0.612 -1.746,-0.612c-0.788,-0 -1.488,0.262 -1.925,0.875c-0.521,0.612 -1.309,1.308 -2.442,1.92c-0.962,0.525 -2.008,0.959 -3.321,1.396c-1.308,0.438 -3.054,0.613 -5.412,0.613c-3.409,-0 -6.463,-0.788 -8.996,-2.446c-2.533,-1.571 -4.542,-3.754 -6.025,-6.55c-1.483,-2.792 -2.183,-5.937 -2.183,-9.429c-0,-3.409 0.787,-6.55 2.271,-9.346c1.483,-2.708 3.579,-4.892 6.2,-6.55c2.62,-1.658 5.587,-2.446 8.82,-2.446c1.834,0 3.405,0.175 4.8,0.438c1.4,0.262 2.446,0.612 3.234,0.962c0.787,0.438 1.483,0.871 1.92,1.308c0.438,0.438 0.876,0.875 1.309,1.225c0.437,0.346 0.962,0.521 1.662,0.521c0.696,0 1.221,-0.262 1.659,-0.871c0.437,-0.525 0.608,-1.049 0.608,-1.658c0,-1.225 -0.696,-2.358 -2.096,-3.408c-1.483,-1.046 -3.317,-1.921 -5.675,-2.534c-2.358,-0.608 -4.887,-0.87 -7.683,-0.87c-4.454,-0 -8.296,1.046 -11.617,3.141Z" style="fill:#545e9c;fill-rule:nonzero;"/><path d="M1316.43,1108.75c0,-0.696 -0.262,-1.309 -0.7,-1.833c-0.525,-0.521 -1.133,-0.784 -1.921,-0.784c-0.783,0 -1.395,0.263 -1.833,0.784c-0.525,0.524 -0.788,1.137 -0.788,1.833l0,40.171c0,0.7 0.263,1.312 0.788,1.833c0.438,0.525 1.05,0.787 1.833,0.787c0.7,0 1.313,-0.262 1.834,-0.787c0.525,-0.521 0.787,-1.133 0.787,-1.833l0,-40.171Zm0.088,-9.342c0.612,-0.525 0.871,-1.312 0.871,-2.358l-0,-0.875c-0,-1.046 -0.259,-1.833 -0.871,-2.442c-0.613,-0.525 -1.484,-0.787 -2.621,-0.787c-1.134,-0 -2.096,0.262 -2.709,0.787c-0.695,0.609 -1.045,1.396 -1.045,2.442l-0,0.875c-0,1.046 0.35,1.833 0.958,2.358c0.613,0.613 1.487,0.871 2.708,0.871c1.138,-0 2.096,-0.258 2.709,-0.871Z" style="fill:#545e9c;fill-rule:nonzero;"/><path d="M1336.95,1145.08c-2.358,-1.571 -4.279,-3.754 -5.587,-6.638c-1.4,-2.791 -2.096,-5.937 -2.096,-9.429c-0,-3.583 0.696,-6.725 2.096,-9.433c1.308,-2.704 3.229,-4.888 5.675,-6.462c2.358,-1.571 5.062,-2.359 8.12,-2.359c3.059,0 5.85,0.788 8.209,2.446c2.358,1.658 4.279,3.842 5.675,6.55c1.312,2.708 2.008,5.85 2.008,9.258c0,3.492 -0.696,6.638 -2.008,9.429c-1.396,2.884 -3.317,5.067 -5.675,6.638c-2.359,1.658 -5.15,2.446 -8.209,2.446c-3.058,-0 -5.85,-0.788 -8.208,-2.446Zm24.537,-37.375c-0.52,0.525 -0.783,1.133 -0.783,1.921l0,5.412c-0.875,-1.571 -1.921,-3.054 -3.321,-4.279c-1.658,-1.483 -3.491,-2.704 -5.675,-3.579c-2.183,-0.871 -4.541,-1.308 -7.075,-1.308c-3.929,-0 -7.421,0.958 -10.479,2.966c-3.054,2.009 -5.5,4.717 -7.333,8.121c-1.833,3.496 -2.709,7.513 -2.709,12.054c0,4.455 0.876,8.384 2.709,11.963c1.746,3.579 4.191,6.375 7.333,8.383c3.058,2.009 6.638,3.058 10.567,3.058c2.446,0 4.716,-0.437 6.9,-1.399c2.096,-0.871 3.929,-2.009 5.5,-3.492c1.487,-1.396 2.708,-2.884 3.583,-4.454l0,5.85c0,0.7 0.263,1.312 0.783,1.833c0.438,0.525 1.051,0.787 1.834,0.787c0.7,0 1.312,-0.262 1.837,-0.787c0.521,-0.521 0.784,-1.133 0.784,-1.833l-0,-39.296c-0,-0.788 -0.263,-1.396 -0.7,-1.921c-0.521,-0.525 -1.134,-0.787 -1.921,-0.787c-0.783,-0 -1.396,0.262 -1.834,0.787Z" style="fill:#545e9c;fill-rule:nonzero;"/><path d="M1382.1,1089.54c-0,-0.701 -0.263,-1.313 -0.7,-1.838c-0.525,-0.521 -1.133,-0.783 -1.921,-0.783c-0.7,-0 -1.308,0.262 -1.833,0.783c-0.525,0.525 -0.788,1.137 -0.788,1.838l0,59.379c0,0.7 0.263,1.312 0.788,1.833c0.437,0.525 1.05,0.787 1.833,0.787c0.7,0 1.313,-0.262 1.833,-0.787c0.525,-0.521 0.788,-1.133 0.788,-1.833l-0,-59.379Z" style="fill:#545e9c;fill-rule:nonzero;"/><path d="M1427.94,1107.7c-2.009,0.787 -3.755,1.921 -5.413,3.229c-1.575,1.313 -2.796,2.708 -3.671,4.279l0,-25.67c0,-0.701 -0.258,-1.313 -0.695,-1.838c-0.525,-0.521 -1.138,-0.783 -1.921,-0.783c-0.788,-0 -1.4,0.262 -1.834,0.783c-0.525,0.525 -0.787,1.137 -0.787,1.838l-0,59.379c-0,0.7 0.262,1.312 0.7,1.833c0.433,0.525 1.133,0.787 1.921,0.787c0.696,0 1.308,-0.262 1.833,-0.787c0.525,-0.521 0.783,-1.133 0.783,-1.833l0,-24.713c0,-2.358 0.7,-4.542 2.009,-6.462c1.312,-1.921 3.146,-3.492 5.329,-4.629c2.183,-1.134 4.454,-1.659 6.9,-1.659c2.704,0 4.887,0.525 6.55,1.659c1.658,1.137 2.791,2.708 3.579,4.629c0.696,1.92 1.046,4.104 1.046,6.462l-0,24.713c-0,0.7 0.262,1.312 0.7,1.833c0.437,0.525 1.133,0.787 1.921,0.787c0.7,0 1.308,-0.262 1.833,-0.787c0.525,-0.521 0.787,-1.133 0.787,-1.833l0,-24.713c0,-3.229 -0.525,-6.2 -1.57,-8.908c-1.138,-2.704 -2.796,-4.8 -5.067,-6.375c-2.271,-1.571 -5.242,-2.359 -8.908,-2.359c-2.009,0 -4.017,0.351 -6.025,1.138Z" style="fill:#545e9c;fill-rule:nonzero;"/><path d="M1498.59,1117.22c-1.921,-3.492 -4.538,-6.288 -7.859,-8.296c-3.316,-2.008 -7.071,-3.054 -11.35,-3.054c-4.104,-0 -7.862,1.046 -11.179,3.054c-3.404,2.008 -6.025,4.804 -7.946,8.296c-2.008,3.495 -2.971,7.512 -2.971,11.966c0,4.454 0.963,8.384 2.971,11.875c1.921,3.579 4.542,6.288 7.946,8.296c3.317,2.009 7.075,3.058 11.179,3.058c4.279,0 8.034,-1.049 11.35,-3.058c3.321,-2.008 5.938,-4.717 7.859,-8.296c1.924,-3.491 2.883,-7.421 2.883,-11.875c-0,-4.454 -0.959,-8.471 -2.883,-11.966Zm-4.538,21.396c-1.488,2.708 -3.408,4.891 -5.942,6.462c-2.529,1.658 -5.5,2.446 -8.729,2.446c-3.146,-0 -6.029,-0.788 -8.558,-2.446c-2.533,-1.571 -4.542,-3.754 -6.025,-6.462c-1.488,-2.709 -2.271,-5.851 -2.271,-9.43c0,-3.583 0.783,-6.725 2.271,-9.521c1.483,-2.708 3.492,-4.887 6.025,-6.549c2.529,-1.571 5.412,-2.359 8.558,-2.359c3.229,0 6.2,0.788 8.729,2.359c2.534,1.662 4.454,3.841 5.942,6.549c1.483,2.796 2.183,5.938 2.183,9.521c0,3.579 -0.7,6.721 -2.183,9.43Z" style="fill:#545e9c;fill-rule:nonzero;"/><path d="M1540.77,1107.96c-0.438,0.524 -0.696,1.133 -0.696,1.833l-0,24.625c-0,4.192 -1.138,7.337 -3.408,9.521c-2.271,2.183 -5.413,3.316 -9.43,3.316c-3.929,0 -7.075,-1.133 -9.258,-3.316c-2.271,-2.184 -3.404,-5.329 -3.404,-9.521l-0,-24.625c-0,-0.7 -0.263,-1.309 -0.7,-1.833c-0.525,-0.526 -1.133,-0.788 -1.921,-0.788c-0.788,0 -1.396,0.262 -1.833,0.788c-0.525,0.524 -0.788,1.133 -0.788,1.833l0,24.625c0,5.762 1.658,10.129 4.892,13.187c3.229,3.054 7.508,4.542 13.012,4.542c5.5,-0 9.954,-1.488 13.184,-4.542c3.233,-3.058 4.891,-7.425 4.891,-13.187l0,-24.625c0,-0.7 -0.262,-1.309 -0.7,-1.833c-0.521,-0.526 -1.133,-0.788 -1.921,-0.788c-0.783,0 -1.483,0.262 -1.92,0.788Z" style="fill:#545e9c;fill-rule:nonzero;"/><path d="M1561.03,1150.58c2.883,1.221 5.938,1.833 9.083,1.833c2.879,0 5.588,-0.524 7.946,-1.487c2.359,-0.958 4.279,-2.442 5.763,-4.279c1.4,-1.833 2.095,-4.104 2.095,-6.633c0,-2.184 -0.349,-4.021 -1.133,-5.505c-0.787,-1.483 -1.833,-2.708 -3.146,-3.666c-1.308,-0.963 -2.879,-1.746 -4.541,-2.359c-1.746,-0.612 -3.579,-1.22 -5.413,-1.658c-2.183,-0.612 -4.192,-1.225 -5.937,-1.921c-1.834,-0.7 -3.234,-1.575 -4.279,-2.621c-1.138,-1.05 -1.746,-2.446 -1.834,-4.104c0,-1.833 0.521,-3.233 1.483,-4.367c0.963,-1.133 2.271,-1.92 3.755,-2.533c1.487,-0.525 3.058,-0.783 4.716,-0.783c2.184,-0 4.279,0.433 6.2,1.221c1.921,0.787 3.579,2.008 4.979,3.579c0.434,0.437 0.959,0.7 1.571,0.7c0.613,-0 1.134,-0.175 1.571,-0.525c0.613,-0.525 0.875,-1.134 0.875,-1.834c0,-0.612 -0.262,-1.22 -0.787,-1.745c-1.309,-1.484 -2.709,-2.709 -4.367,-3.58c-1.658,-0.875 -3.317,-1.487 -4.975,-1.92c-1.663,-0.35 -3.233,-0.525 -4.717,-0.525c-2.883,-0 -5.504,0.525 -7.77,1.57c-2.359,1.05 -4.192,2.534 -5.505,4.367c-1.308,1.833 -2.008,4.017 -2.008,6.463c-0,2.096 0.438,3.841 1.308,5.325c0.875,1.487 2.013,2.708 3.496,3.671c1.396,1.045 3.054,1.92 4.888,2.529c1.837,0.7 3.758,1.312 5.766,1.837c1.834,0.433 3.667,1.046 5.325,1.659c1.659,0.608 2.971,1.483 4.017,2.616c1.05,1.138 1.575,2.533 1.575,4.367c0,1.75 -0.525,3.146 -1.575,4.279c-1.046,1.138 -2.358,2.008 -3.929,2.533c-1.659,0.613 -3.229,0.875 -4.892,0.875c-3.054,0 -5.762,-0.612 -7.946,-1.921c-2.271,-1.224 -4.191,-2.883 -5.762,-4.891c-0.525,-0.525 -1.05,-0.788 -1.658,-0.875c-0.613,-0.088 -1.226,0.087 -1.659,0.525c-0.7,0.437 -1.05,0.962 -1.05,1.571c-0.087,0.7 0.175,1.4 0.613,2.096c2.27,2.883 4.887,4.891 7.858,6.116Z" style="fill:#545e9c;fill-rule:nonzero;"/><path d="M1598.4,1108.75c-0,-0.696 -0.258,-1.309 -0.696,-1.833c-0.525,-0.521 -1.137,-0.784 -1.921,-0.784c-0.787,0 -1.4,0.263 -1.833,0.784c-0.525,0.524 -0.787,1.137 -0.787,1.833l-0,40.171c-0,0.7 0.262,1.312 0.787,1.833c0.433,0.525 1.046,0.787 1.833,0.787c0.696,0 1.309,-0.262 1.834,-0.787c0.525,-0.521 0.783,-1.133 0.783,-1.833l-0,-40.171Zm0.087,-9.342c0.613,-0.525 0.875,-1.312 0.875,-2.358l0,-0.875c0,-1.046 -0.262,-1.833 -0.875,-2.442c-0.608,-0.525 -1.483,-0.787 -2.616,-0.787c-1.138,-0 -2.096,0.262 -2.708,0.787c-0.7,0.609 -1.051,1.396 -1.051,2.442l0,0.875c0,1.046 0.351,1.833 0.963,2.358c0.612,0.613 1.483,0.871 2.708,0.871c1.134,-0 2.096,-0.258 2.704,-0.871Z" style="fill:#545e9c;fill-rule:nonzero;"/><path d="M1623.55,1107c-2.096,0.788 -4.017,1.921 -5.675,3.233c-1.571,1.309 -2.883,2.792 -3.929,4.367l-0,-4.804c-0,-0.7 -0.263,-1.309 -0.7,-1.833c-0.525,-0.526 -1.133,-0.788 -1.921,-0.788c-0.788,0 -1.396,0.262 -1.833,0.788c-0.525,0.524 -0.788,1.133 -0.788,1.833l0,39.121c0,0.7 0.263,1.312 0.7,1.833c0.438,0.525 1.133,0.787 1.921,0.787c0.7,0 1.308,-0.262 1.833,-0.787c0.525,-0.521 0.788,-1.133 0.788,-1.833l-0,-25.413c-0,-2.354 0.696,-4.454 2.096,-6.375c1.395,-1.921 3.229,-3.492 5.5,-4.625c2.183,-1.137 4.541,-1.75 7.075,-1.75c2.796,0 5.062,0.613 6.812,1.75c1.659,1.133 2.879,2.704 3.667,4.625c0.783,1.921 1.133,4.021 1.133,6.375l0,25.413c0,0.7 0.263,1.312 0.7,1.833c0.438,0.525 1.134,0.787 1.921,0.787c0.7,0 1.308,-0.262 1.833,-0.787c0.525,-0.521 0.788,-1.133 0.788,-1.833l-0,-25.671c-0,-3.233 -0.525,-6.117 -1.483,-8.821c-1.051,-2.621 -2.709,-4.717 -4.98,-6.287c-2.358,-1.488 -5.416,-2.271 -9.258,-2.271c-2.096,-0 -4.192,0.35 -6.2,1.133Z" style="fill:#545e9c;fill-rule:nonzero;"/><path d="M1683.63,1113.03c2.533,1.575 4.454,3.758 5.938,6.463c1.483,2.795 2.183,6.025 2.183,9.608c-0,3.579 -0.7,6.808 -2.183,9.517c-1.484,2.795 -3.405,4.979 -5.938,6.55c-2.533,1.57 -5.325,2.358 -8.558,2.358c-3.229,-0 -6.025,-0.788 -8.558,-2.446c-2.534,-1.571 -4.542,-3.754 -5.938,-6.55c-1.483,-2.792 -2.183,-5.937 -2.183,-9.429c-0,-3.496 0.7,-6.638 2.183,-9.434c1.396,-2.708 3.404,-4.887 5.938,-6.549c2.533,-1.571 5.329,-2.359 8.558,-2.359c3.233,0 6.025,0.788 8.558,2.271Zm-19.912,-4.192c-3.23,2.009 -5.763,4.804 -7.596,8.296c-1.921,3.583 -2.883,7.513 -2.883,11.967c-0,4.454 0.962,8.471 2.883,11.962c1.833,3.492 4.366,6.288 7.596,8.296c3.233,2.009 6.812,3.058 10.829,3.058c1.833,0 3.758,-0.262 5.679,-0.875c1.833,-0.524 3.579,-1.308 5.237,-2.445c1.659,-1.046 3.059,-2.359 4.28,-3.929c0.612,-0.871 1.137,-1.746 1.571,-2.796l-0,5.416c-0,4.892 -1.396,8.821 -4.28,11.788c-2.879,3.058 -6.983,4.541 -12.225,4.541c-1.483,0 -2.966,-0.174 -4.279,-0.437c-1.396,-0.263 -2.621,-0.521 -3.579,-0.871c-0.962,-0.35 -1.746,-0.612 -2.358,-0.787c-1.309,-0.525 -2.271,-0.959 -2.884,-1.309c-0.608,-0.262 -1.221,-0.262 -1.833,0.175c-0.433,0.346 -0.696,0.784 -0.696,1.221c-0.087,0.525 0.175,1.05 0.608,1.571c0.175,0.875 1.051,1.746 2.709,2.533c1.571,0.788 3.492,1.484 5.762,2.009c2.184,0.525 4.367,0.787 6.375,0.787c4.192,0 7.95,-0.875 11.267,-2.533c3.229,-1.659 5.85,-4.017 7.771,-7.25c1.921,-3.229 2.883,-7.159 2.883,-11.788l0,-37.812c0,-0.788 -0.262,-1.396 -0.7,-1.921c-0.437,-0.525 -1.133,-0.787 -1.921,-0.787c-0.787,-0 -1.395,0.262 -1.833,0.787c-0.525,0.525 -0.787,1.133 -0.787,1.921l-0,5.5c-0.959,-1.571 -2.184,-2.967 -3.755,-4.454c-1.658,-1.396 -3.666,-2.529 -5.85,-3.492c-2.183,-0.871 -4.629,-1.308 -7.25,-1.308c-4.016,-0 -7.596,0.958 -10.741,2.966Z" style="fill:#545e9c;fill-rule:nonzero;"/><path d="M1732.88,1150.58c2.88,1.221 5.938,1.833 9.08,1.833c2.883,0 5.591,-0.524 7.95,-1.487c2.354,-0.958 4.279,-2.442 5.762,-4.279c1.396,-1.833 2.096,-4.104 2.096,-6.633c-0,-2.184 -0.35,-4.021 -1.138,-5.505c-0.783,-1.483 -1.833,-2.708 -3.141,-3.666c-1.309,-0.963 -2.884,-1.746 -4.542,-2.359c-1.746,-0.612 -3.579,-1.22 -5.412,-1.658c-2.184,-0.612 -4.192,-1.225 -5.942,-1.921c-1.833,-0.7 -3.229,-1.575 -4.279,-2.621c-1.134,-1.05 -1.746,-2.446 -1.834,-4.104c0,-1.833 0.525,-3.233 1.488,-4.367c0.958,-1.133 2.271,-1.92 3.754,-2.533c1.483,-0.525 3.054,-0.783 4.717,-0.783c2.183,-0 4.279,0.433 6.2,1.221c1.92,0.787 3.579,2.008 4.975,3.579c0.437,0.437 0.962,0.7 1.575,0.7c0.608,-0 1.133,-0.175 1.57,-0.525c0.613,-0.525 0.871,-1.134 0.871,-1.834c0,-0.612 -0.258,-1.22 -0.783,-1.745c-1.313,-1.484 -2.708,-2.709 -4.367,-3.58c-1.658,-0.875 -3.321,-1.487 -4.979,-1.92c-1.658,-0.35 -3.229,-0.525 -4.717,-0.525c-2.879,-0 -5.499,0.525 -7.77,1.57c-2.359,1.05 -4.192,2.534 -5.5,4.367c-1.313,1.833 -2.009,4.017 -2.009,6.463c0,2.096 0.438,3.841 1.309,5.325c0.875,1.487 2.008,2.708 3.491,3.671c1.4,1.045 3.059,1.92 4.892,2.529c1.833,0.7 3.754,1.312 5.763,1.837c1.837,0.433 3.67,1.046 5.329,1.659c1.658,0.608 2.966,1.483 4.016,2.616c1.046,1.138 1.571,2.533 1.571,4.367c0,1.75 -0.525,3.146 -1.571,4.279c-1.05,1.138 -2.358,2.008 -3.929,2.533c-1.658,0.613 -3.233,0.875 -4.892,0.875c-3.054,0 -5.762,-0.612 -7.945,-1.921c-2.271,-1.224 -4.192,-2.883 -5.763,-4.891c-0.525,-0.525 -1.05,-0.788 -1.662,-0.875c-0.609,-0.088 -1.221,0.087 -1.659,0.525c-0.696,0.437 -1.045,0.962 -1.045,1.571c-0.088,0.7 0.175,1.4 0.608,2.096c2.271,2.883 4.891,4.891 7.862,6.116Z" style="fill:#545e9c;fill-rule:nonzero;"/><path d="M1794.53,1150.05c2.796,-1.487 5.067,-3.321 6.813,-5.417c0.608,-0.52 0.871,-1.133 0.871,-1.833c-0,-0.608 -0.175,-1.133 -0.609,-1.571c-0.437,-0.437 -0.962,-0.7 -1.575,-0.7c-0.608,0 -1.308,0.263 -1.921,0.788c-0.783,1.046 -1.833,2.008 -3.054,2.971c-1.225,0.958 -2.621,1.745 -4.279,2.354c-1.658,0.612 -3.496,0.875 -5.504,0.875c-3.667,-0 -6.808,-0.788 -9.429,-2.446c-2.708,-1.658 -4.717,-3.842 -6.113,-6.638c-1.4,-2.791 -2.095,-5.849 -2.095,-9.254l33.008,0c0.7,0 1.308,-0.262 1.833,-0.787c0.525,-0.438 0.788,-1.046 0.875,-1.746c-0.087,-3.404 -0.7,-6.375 -1.833,-8.908c-1.138,-2.534 -2.709,-4.717 -4.542,-6.55c-1.921,-1.746 -4.104,-3.054 -6.462,-4.017c-2.446,-0.871 -4.98,-1.308 -7.513,-1.308c-3.491,-0 -6.808,0.958 -9.866,2.791c-3.142,1.925 -5.675,4.63 -7.596,8.125c-2.009,3.492 -2.971,7.684 -2.971,12.663c-0,4.625 0.962,8.641 2.883,12.05c1.921,3.404 4.629,6.112 8.033,8.033c3.405,1.921 7.421,2.883 11.875,2.883c3.321,0 6.375,-0.787 9.171,-2.358Zm-26.458,-25.587c0.175,-1.309 0.521,-2.446 0.958,-3.58c0.963,-2.27 2.184,-4.191 3.667,-5.679c1.487,-1.483 3.146,-2.529 4.979,-3.229c1.834,-0.7 3.579,-1.05 5.325,-1.05c2.358,0 4.542,0.525 6.725,1.488c2.183,0.958 4.017,2.441 5.504,4.366c1.484,1.921 2.359,4.28 2.617,6.984l0,0.7l-29.775,-0Z" style="fill:#545e9c;fill-rule:nonzero;"/><path d="M1819.25,1109.01c-3.404,2.184 -6.025,4.98 -7.858,8.471c-1.834,3.496 -2.796,7.338 -2.796,11.617c-0,4.454 0.962,8.383 2.796,11.875c1.833,3.579 4.366,6.375 7.683,8.383c3.233,2.009 7.075,3.058 11.441,3.058c3.055,0 5.85,-0.437 8.209,-1.312c2.358,-0.783 4.279,-1.833 5.675,-2.967c1.312,-1.137 2.008,-2.096 2.008,-3.058c0,-0.7 -0.175,-1.308 -0.525,-1.746c-0.433,-0.437 -0.958,-0.612 -1.746,-0.612c-0.783,-0 -1.483,0.262 -1.92,0.875c-0.525,0.612 -1.309,1.308 -2.446,1.92c-0.959,0.525 -2.009,0.959 -3.317,1.396c-1.308,0.438 -3.058,0.613 -5.417,0.613c-3.404,-0 -6.458,-0.788 -8.991,-2.446c-2.534,-1.571 -4.542,-3.754 -6.025,-6.55c-1.488,-2.792 -2.184,-5.937 -2.184,-9.429c0,-3.409 0.784,-6.55 2.271,-9.346c1.484,-2.708 3.579,-4.892 6.2,-6.55c2.617,-1.658 5.588,-2.446 8.817,-2.446c1.837,0 3.408,0.175 4.804,0.438c1.396,0.262 2.446,0.612 3.233,0.962c0.784,0.438 1.484,0.871 1.921,1.308c0.434,0.438 0.871,0.875 1.309,1.225c0.437,0.346 0.962,0.521 1.658,0.521c0.7,0 1.225,-0.262 1.662,-0.871c0.434,-0.525 0.609,-1.049 0.609,-1.658c-0,-1.225 -0.696,-2.358 -2.096,-3.408c-1.484,-1.046 -3.317,-1.921 -5.675,-2.534c-2.359,-0.608 -4.892,-0.87 -7.683,-0.87c-4.455,-0 -8.3,1.046 -11.617,3.141Z" style="fill:#545e9c;fill-rule:nonzero;"/><path d="M1857.41,1095.56c-0.525,0.521 -0.787,1.134 -0.787,1.834l-0,9.692l-6.375,-0c-0.696,-0 -1.309,0.262 -1.746,0.7c-0.525,0.437 -0.783,1.045 -0.783,1.745c-0,0.613 0.258,1.221 0.783,1.659c0.437,0.525 1.05,0.787 1.746,0.787l6.375,0l-0,29.517c-0,2.621 0.35,4.629 1.137,6.025c0.696,1.396 1.571,2.358 2.709,2.883c1.133,0.609 2.179,0.871 3.229,0.959c1.046,0.087 1.833,0.174 2.358,0.174c1.308,0 2.359,-0.262 3.317,-0.875c0.962,-0.52 1.4,-1.22 1.4,-2.008c-0,-0.608 -0.175,-1.133 -0.525,-1.571c-0.438,-0.437 -0.875,-0.612 -1.396,-0.612c-0.437,-0 -0.875,0.087 -1.225,0.175c-0.438,0.175 -0.871,0.262 -1.308,0.262c-0.7,0 -1.4,-0.175 -2.096,-0.437c-0.7,-0.258 -1.225,-0.783 -1.658,-1.571c-0.438,-0.783 -0.701,-2.008 -0.701,-3.667l0,-29.254l8.734,0c0.696,0 1.308,-0.262 1.746,-0.7c0.437,-0.437 0.7,-1.046 0.7,-1.658c-0,-0.7 -0.263,-1.309 -0.7,-1.833c-0.438,-0.438 -1.05,-0.7 -1.746,-0.7l-8.734,-0l0,-9.692c0,-0.7 -0.262,-1.313 -0.7,-1.834c-0.524,-0.524 -1.133,-0.787 -1.92,-0.787c-0.788,0 -1.396,0.263 -1.834,0.787Z" style="fill:#545e9c;fill-rule:nonzero;"/><path d="M1917.66,1117.22c-1.921,-3.492 -4.542,-6.288 -7.859,-8.296c-3.316,-2.008 -7.075,-3.054 -11.354,-3.054c-4.104,-0 -7.858,1.046 -11.175,3.054c-3.408,2.008 -6.025,4.804 -7.95,8.296c-2.008,3.495 -2.967,7.512 -2.967,11.966c0,4.454 0.959,8.384 2.967,11.875c1.925,3.579 4.542,6.288 7.95,8.296c3.317,2.009 7.071,3.058 11.175,3.058c4.279,0 8.038,-1.049 11.354,-3.058c3.317,-2.008 5.938,-4.717 7.859,-8.296c1.92,-3.491 2.883,-7.421 2.883,-11.875c-0,-4.454 -0.963,-8.471 -2.883,-11.966Zm-4.542,21.396c-1.484,2.708 -3.404,4.891 -5.938,6.462c-2.533,1.658 -5.5,2.446 -8.733,2.446c-3.142,-0 -6.025,-0.788 -8.558,-2.446c-2.529,-1.571 -4.538,-3.754 -6.025,-6.462c-1.484,-2.709 -2.271,-5.851 -2.271,-9.43c-0,-3.583 0.787,-6.725 2.271,-9.521c1.487,-2.708 3.496,-4.887 6.025,-6.549c2.533,-1.571 5.416,-2.359 8.558,-2.359c3.233,0 6.2,0.788 8.733,2.359c2.534,1.662 4.454,3.841 5.938,6.549c1.487,2.796 2.183,5.938 2.183,9.521c0,3.579 -0.696,6.721 -2.183,9.43Z" style="fill:#545e9c;fill-rule:nonzero;"/><path d="M1932.86,1150.75c0.525,-0.521 0.784,-1.133 0.784,-1.833l-0,-21.567c-0,-2.008 0.437,-4.104 1.225,-6.117c0.787,-2.008 1.833,-3.754 3.141,-5.412c1.313,-1.658 2.796,-2.971 4.455,-3.929c1.658,-0.963 3.233,-1.396 4.891,-1.396c0.959,-0 1.833,0.171 2.446,0.433c0.608,0.263 1.133,0.438 1.658,0.438c0.613,-0 1.221,-0.263 1.659,-0.7c0.437,-0.434 0.7,-1.134 0.7,-2.009c-0,-0.958 -0.525,-1.745 -1.484,-2.183c-0.962,-0.433 -2.008,-0.608 -3.058,-0.608c-2.533,-0 -4.717,0.525 -6.725,1.57c-2.008,1.05 -3.754,2.446 -5.238,4.105c-1.487,1.658 -2.62,3.491 -3.408,5.5l-0.262,0.787l-0,-8.033c-0,-0.7 -0.259,-1.309 -0.696,-1.833c-0.525,-0.526 -1.138,-0.788 -1.921,-0.788c-0.788,0 -1.4,0.262 -1.833,0.788c-0.525,0.524 -0.788,1.133 -0.788,1.833l0,39.121c0,0.7 0.263,1.312 0.7,1.833c0.433,0.525 1.133,0.787 1.921,0.787c0.696,0 1.308,-0.262 1.833,-0.787Z" style="fill:#545e9c;fill-rule:nonzero;"/><path d="M219.567,546.642c-0,5.579 -1.396,9.325 -4.163,11.304c-2.783,1.958 -6.312,2.937 -10.558,2.937l-186.454,0c-5.221,0 -9.146,-0.979 -11.759,-2.937c-2.612,-1.979 -3.916,-6.229 -3.916,-12.763l-0,-311.066c-0,-9.142 4.575,-13.742 13.716,-13.742l49.571,-0c5.554,-0 9.388,1.067 11.517,3.204c2.112,2.134 3.208,5.963 3.208,11.521l0,260.042l125.092,-0c9.15,-0 13.746,4.741 13.746,14.216l-0,37.284Z" style="fill:#f37366;fill-rule:nonzero;"/><path d="M389.092,441.167c-0,-9.146 -0.742,-17.813 -2.242,-26c-1.483,-8.167 -4.05,-15.375 -7.663,-21.58c-3.637,-6.208 -8.433,-11.22 -14.374,-14.97c-5.971,-3.763 -13.55,-5.638 -22.809,-5.638c-9.254,0 -16.942,1.788 -23.062,5.384c-6.1,3.612 -11.063,8.512 -14.854,14.725c-3.809,6.225 -6.534,13.412 -8.188,21.579c-1.658,8.179 -2.483,16.679 -2.483,25.525c-0,9.166 0.745,17.9 2.221,26.241c1.504,8.338 4.05,15.7 7.712,22.084c3.612,6.379 8.404,11.454 14.375,15.2c5.925,3.766 13.542,5.641 22.779,5.641c9.275,0 16.946,-1.875 23.063,-5.641c6.12,-3.746 11.062,-8.734 14.875,-14.963c3.787,-6.208 6.512,-13.483 8.171,-21.821c1.654,-8.341 2.479,-16.941 2.479,-25.766Zm75.554,0.479c-0,18.012 -2.788,34.696 -8.321,50.05c-5.575,15.375 -13.675,28.637 -24.304,39.746c-10.633,11.129 -23.721,19.862 -39.246,26.25c-15.55,6.375 -33.283,9.579 -53.233,9.579c-20.6,-0 -38.592,-3.204 -53.963,-9.579c-15.375,-6.388 -28.054,-15.209 -38.025,-26.488c-9.979,-11.283 -17.429,-24.612 -22.325,-39.987c-4.9,-15.375 -7.362,-32.213 -7.362,-50.55c-0,-17.971 2.762,-34.65 8.337,-50.025c5.559,-15.375 13.638,-28.617 24.288,-39.742c10.625,-11.133 23.72,-19.888 39.246,-26.25c15.525,-6.383 33.279,-9.583 53.25,-9.583c20.6,-0 38.591,3.2 53.966,9.583c15.375,6.362 28.034,15.204 38.029,26.487c9.975,11.28 17.4,24.605 22.3,39.988c4.925,15.375 7.363,32.229 7.363,50.521Z" style="fill:#f37366;fill-rule:nonzero;"/><path d="M711.704,546.162c0,4.901 -0.979,8.584 -2.937,11.046c-1.963,2.438 -5.729,3.675 -11.304,3.675l-45.125,0c-9.5,0 -14.221,-4.921 -14.221,-14.721l-0,-130.52c-0,-10.45 -1.813,-18.796 -5.405,-25c-3.595,-6.234 -11.125,-9.321 -22.583,-9.321c-8.167,-0 -16.837,1.696 -25.987,5.137c-9.163,3.446 -17.18,8.1 -24.038,13.988l0,146.191c0,9.501 -4.6,14.246 -13.742,14.246l-46.133,0c-9.141,0 -13.716,-4.421 -13.716,-13.262l-0,-211.45c-0,-4.575 0.954,-8.104 2.937,-10.538c1.963,-2.462 5.729,-3.687 11.288,-3.687l40.22,-0c3.617,-0 6.621,0.658 9.084,1.962c2.458,1.309 4.008,4.1 4.658,8.346l0.979,10.3c11.459,-8.837 23.721,-15.612 36.809,-20.362c13.066,-4.75 26.987,-7.125 41.687,-7.125c27.154,-0 46.867,7.862 59.129,23.566c12.259,15.684 18.4,36.959 18.4,63.771l0,143.758Z" style="fill:#f37366;fill-rule:nonzero;"/><path d="M896.433,390.687c-4.575,-4.595 -10.279,-8.362 -17.162,-11.325c-6.863,-2.937 -13.892,-4.424 -21.079,-4.424c-6.559,-0 -12.459,1.225 -17.688,3.679c-5.225,2.487 -9.625,5.512 -13.237,9.108c-6.538,6.575 -11.025,14.963 -13.509,25.138c-2.437,10.166 -3.654,19.704 -3.654,28.566c0,8.863 1.129,17.817 3.438,26.829c2.266,9.038 6.687,16.663 13.241,22.913c3.921,3.946 8.584,6.733 13.984,8.362c5.404,1.659 10.541,2.471 15.462,2.471c7.492,0 15.117,-1.875 22.804,-5.671c7.688,-3.766 13.484,-7.8 17.4,-12.062l0,-93.584Zm73.613,150.967c-0,41.254 -9.5,72.679 -28.463,94.263c-18.975,21.6 -49.725,32.404 -92.237,32.404c-12.763,-0 -25.263,-1.067 -37.55,-3.179c-12.238,-2.134 -24.929,-5.963 -38.017,-11.521c-5.883,-2.313 -8.825,-5.9 -8.825,-10.8c0,-1.638 0.154,-3.113 0.5,-4.425c0.304,-1.304 0.654,-2.613 0.963,-3.917l8.362,-27.487c0.954,-3.263 1.963,-5.725 2.938,-7.359c0.979,-1.637 2.462,-2.441 4.416,-2.441c3.271,-0 6.363,0.654 9.325,1.954c9.146,3.6 18.296,6.387 27.463,8.346c9.171,1.962 17.996,2.941 26.508,2.941c11.104,0 20.038,-1.391 26.742,-4.162c6.687,-2.779 11.85,-6.554 15.446,-11.3c3.591,-4.725 5.962,-10.3 7.116,-16.679c1.134,-6.363 1.7,-13.334 1.7,-20.846l0,-17.667c-6.862,5.579 -15.941,10.638 -27.225,15.204c-11.279,4.596 -21.825,6.888 -31.625,6.888c-30.091,-0 -54.312,-9.15 -72.629,-27.488c-10.475,-10.454 -18.312,-23.304 -23.546,-38.504c-5.225,-15.221 -7.837,-31.821 -7.837,-49.812c-0,-16.684 2.35,-32.775 7.1,-48.325c4.746,-15.525 11.758,-29.355 21.083,-41.442c9.317,-12.108 20.863,-21.846 34.604,-29.208c13.746,-7.363 29.6,-11.042 47.588,-11.042c11.458,0 22.562,2.442 33.362,7.3c3.925,1.629 8.188,4.217 12.763,7.8c4.575,3.567 8.171,7.292 10.808,11.192l0.954,-10.804c0.659,-6.538 4.925,-9.826 12.763,-9.826l41.712,0c5.225,0 8.821,1.067 10.775,3.205c1.988,2.133 2.963,5.637 2.963,10.537l-0,206.2Z" style="fill:#f37366;fill-rule:nonzero;"/><path d="M1080.2,547.142c0,9.175 -4.246,13.741 -12.762,13.741l-47.563,0c-3.612,0 -6.712,-1.066 -9.325,-3.2c-2.633,-2.112 -3.937,-5.466 -3.937,-10.062l-0,-318.404c-0,-4.9 1.062,-8.254 3.2,-10.063c2.112,-1.787 4.962,-3.025 8.579,-3.679l46.608,-6.383l4.917,-0c6.846,-0 10.283,4.095 10.283,12.262l0,325.788Z" style="fill:#f37366;fill-rule:nonzero;"/><path d="M1262.5,414.183c-0,-5.225 -0.742,-10.387 -2.217,-15.462c-1.462,-5.05 -3.837,-9.65 -7.108,-13.742c-3.267,-4.071 -7.267,-7.337 -12.017,-9.796c-4.75,-2.466 -10.237,-3.679 -16.425,-3.679c-12.458,0 -22.521,4.242 -30.183,12.763c-7.692,8.487 -12.35,18.462 -13.979,29.916l81.929,0Zm72.133,32.388c0,5.879 -1.4,9.729 -4.183,11.516c-2.788,1.809 -7.275,2.701 -13.504,2.701l-137.363,-0c2.942,15.549 10.454,27.358 22.567,35.458c12.083,8.104 25.675,12.129 40.725,12.129c10.783,-0 21.346,-1.129 31.646,-3.417c10.3,-2.287 20.366,-5.4 30.187,-9.32c1.954,-1.005 3.917,-1.48 5.875,-1.48c3.925,0 6.538,2.288 7.842,6.863c0.325,1.954 1.071,4.762 2.225,8.379c1.125,3.613 2.196,7.321 3.183,11.113c0.975,3.783 1.867,7.42 2.692,10.887c0.808,3.463 1.221,6.183 1.221,8.146c-0,3.312 -0.913,5.617 -2.696,6.941c-1.788,1.313 -4.013,2.638 -6.625,3.946c-13.067,5.942 -27.567,10.23 -43.425,12.867c-15.854,2.637 -30.967,3.971 -45.388,3.971c-19.6,-0 -37.287,-2.963 -52.962,-8.846c-15.729,-5.879 -29.054,-14.217 -39.992,-25.025c-10.975,-10.775 -19.471,-24.038 -25.525,-39.742c-6.05,-15.683 -9.058,-33.345 -9.058,-52.995c-0,-18.942 3.096,-36.217 9.321,-51.742c6.187,-15.525 14.854,-28.788 26.004,-39.742c11.108,-10.958 24.437,-19.45 39.987,-25.525c15.509,-6.037 32.775,-9.062 51.746,-9.062c15.704,-0 30.013,2.766 42.95,8.337c12.892,5.554 23.954,13.25 33.1,23.05c12.413,13.088 20.429,27.717 24.05,43.925c3.592,16.179 5.4,32.946 5.4,50.284l0,6.383Z" style="fill:#f37366;fill-rule:nonzero;"/><path d="M1617.28,390.687c-4.592,-4.595 -10.325,-8.362 -17.188,-11.325c-6.862,-2.937 -13.916,-4.424 -21.099,-4.424c-6.538,-0 -12.413,1.225 -17.642,3.679c-5.25,2.487 -9.671,5.512 -13.263,9.108c-6.558,6.575 -11.045,14.963 -13.487,25.138c-2.458,10.166 -3.696,19.704 -3.696,28.566c-0,8.863 1.15,17.817 3.437,26.829c2.313,9.038 6.713,16.663 13.246,22.913c3.938,3.946 8.604,6.733 13.979,8.362c5.401,1.659 10.563,2.471 15.463,2.471c7.538,0 15.133,-1.875 22.825,-5.671c7.663,-3.766 13.5,-7.8 17.425,-12.062l-0,-93.584Zm73.588,150.967c-0,41.254 -9.492,72.679 -28.463,94.263c-18.967,21.6 -49.717,32.404 -92.238,32.404c-12.762,-0 -25.262,-1.067 -37.524,-3.179c-12.28,-2.134 -24.955,-5.963 -38.025,-11.521c-5.876,-2.313 -8.842,-5.9 -8.842,-10.8c-0,-1.638 0.175,-3.113 0.479,-4.425c0.35,-1.304 0.658,-2.613 1,-3.917l8.321,-27.487c1.004,-3.263 1.987,-5.725 2.962,-7.359c0.979,-1.637 2.442,-2.441 4.4,-2.441c3.267,-0 6.4,0.654 9.317,1.954c9.175,3.6 18.346,6.387 27.496,8.346c9.142,1.962 17.987,2.941 26.479,2.941c11.125,0 20.033,-1.391 26.738,-4.162c6.712,-2.779 11.849,-6.554 15.47,-11.3c3.592,-4.725 5.967,-10.3 7.125,-16.679c1.125,-6.363 1.717,-13.334 1.717,-20.846l-0,-17.667c-6.887,5.579 -15.942,10.638 -27.225,15.204c-11.304,4.596 -21.85,6.888 -31.667,6.888c-30.095,-0 -54.296,-9.15 -72.612,-27.488c-10.45,-10.454 -18.313,-23.304 -23.546,-38.504c-5.242,-15.221 -7.854,-31.821 -7.854,-49.812c-0,-16.684 2.367,-32.775 7.116,-48.325c4.725,-15.525 11.784,-29.355 21.101,-41.442c9.324,-12.108 20.845,-21.846 34.587,-29.208c13.725,-7.363 29.6,-11.042 47.587,-11.042c11.438,0 22.588,2.442 33.371,7.3c3.938,1.629 8.163,4.217 12.763,7.8c4.566,3.567 8.162,7.292 10.775,11.192l1,-10.804c0.662,-6.538 4.887,-9.826 12.741,-9.826l41.709,0c5.225,0 8.842,1.067 10.804,3.205c1.958,2.133 2.938,5.637 2.938,10.537l-0,206.2Z" style="fill:#f37366;fill-rule:nonzero;"/><path d="M1954.1,551.067c0,4.266 -0.412,6.941 -1.221,8.1c-0.825,1.15 -3.029,1.716 -6.616,1.716l-57.409,0c-3.625,0 -5.975,-0.5 -7.125,-1.479c-1.154,-0.975 -1.716,-3.746 -1.716,-8.337l-0,-135.425c-0,-10.45 -1.875,-18.792 -5.625,-25c-3.788,-6.229 -11.238,-9.317 -22.346,-9.317c-8.188,0 -17.004,1.692 -26.479,5.138c-9.496,3.441 -17.671,8.1 -24.525,13.979l-0,150.625c-0,4.266 -0.588,6.941 -1.746,8.1c-1.129,1.15 -3.829,1.716 -8.079,1.716l-55.95,0c-3.263,0 -5.375,-0.566 -6.359,-1.716c-1,-1.159 -1.479,-3.509 -1.479,-7.125l0,-322.342c0,-5.233 1.067,-8.737 3.179,-10.546c2.134,-1.787 5.159,-3.025 9.1,-3.679l44.65,-5.883c1.309,-0.325 2.7,-0.5 4.163,-0.5l3.683,-0c5.875,-0 8.838,3.446 8.838,10.308l-0,120.217c4.879,-3.942 10.366,-7.45 16.425,-10.563c6.05,-3.1 12.412,-5.712 19.116,-7.841c6.713,-2.138 13.421,-3.684 20.125,-4.659c6.709,-0.987 13.15,-1.487 19.388,-1.487c26.833,-0 46.512,7.958 59.125,23.808c12.587,15.854 18.883,37.05 18.883,63.529l0,148.663Z" style="fill:#f37366;fill-rule:nonzero;"/><path d="M1436.71,546.612c0,9.176 -4.246,13.746 -12.762,13.746l-47.563,0c-3.612,0 -6.712,-1.07 -9.325,-3.2c-2.633,-2.112 -3.937,-5.471 -3.937,-10.062l-0,-216.429c-0,-4.9 1.062,-8.259 3.2,-10.063c2.112,-1.787 4.962,-3.025 8.579,-3.683l46.608,-6.379l4.917,-0c6.846,-0 10.283,4.091 10.283,12.262l0,223.808Z" style="fill:#f37366;fill-rule:nonzero;"/><path d="M1426.78,289.821l-53.729,-0c-5.825,-0 -10.546,-4.725 -10.546,-10.55l0,-62.038c0,-5.825 4.721,-10.55 10.546,-10.55l53.729,0c5.825,0 10.546,4.725 10.546,10.55l0,62.038c0,5.825 -4.721,10.55 -10.546,10.55Z" style="fill:#f37366;fill-rule:nonzero;"/></g></svg>