<?xml version="1.0" encoding="UTF-8" standalone="no"?><!DOCTYPE svg PUBLIC "-//W3C//DTD SVG 1.1//EN" "http://www.w3.org/Graphics/SVG/1.1/DTD/svg11.dtd"><svg width="100%" height="100%" viewBox="0 0 469 204" version="1.1" xmlns="http://www.w3.org/2000/svg" xmlns:xlink="http://www.w3.org/1999/xlink" xml:space="preserve" xmlns:serif="http://www.serif.com/" style="fill-rule:evenodd;clip-rule:evenodd;stroke-linejoin:round;stroke-miterlimit:2;"><path d="M431.208,38.258l-32.339,-13.012l-0,-9.002c-0,-2.486 -2.015,-4.5 -4.5,-4.5c-2.486,0 -4.5,2.014 -4.5,4.5l-0,5.38l-52.937,-21.3c-1.084,-0.436 -2.298,-0.432 -3.382,0.009l-92.75,37.91c-2.3,0.94 -3.403,3.568 -2.462,5.868c0.941,2.301 3.567,3.405 5.868,2.464l91.06,-37.22l92.583,37.252c0.55,0.222 1.118,0.327 1.678,0.327c1.783,0 3.47,-1.066 4.176,-2.821c0.928,-2.306 -0.189,-4.928 -2.495,-5.855Z" style="fill:#545e9c;fill-rule:nonzero;"/><path d="M54.265,203.119c-0.621,0 -1.117,-0.199 -1.492,-0.597c-0.377,-0.397 -0.564,-0.862 -0.564,-1.392l0,-42.432c0,-0.529 0.199,-0.993 0.597,-1.392c0.397,-0.397 0.862,-0.597 1.393,-0.597l24.132,0c0.575,0 1.05,0.189 1.427,0.564c0.375,0.375 0.562,0.852 0.562,1.425c0,0.53 -0.187,0.984 -0.562,1.359c-0.377,0.377 -0.852,0.564 -1.427,0.564l-22.342,0l0.264,-0.399l-0,17.636l-0.332,-0.594l19.427,0c0.574,0 1.048,0.187 1.425,0.562c0.375,0.377 0.564,0.827 0.564,1.359c-0,0.575 -0.189,1.038 -0.564,1.392c-0.377,0.354 -0.851,0.531 -1.425,0.531l-19.557,0l0.462,-0.531l-0,20.553c-0,0.53 -0.188,0.995 -0.563,1.392c-0.376,0.398 -0.852,0.597 -1.425,0.597Z" style="fill:#545e9c;fill-rule:nonzero;"/><path d="M118.044,186.146c-0,-2.695 -0.552,-5.094 -1.656,-7.192c-1.105,-2.099 -2.62,-3.758 -4.542,-4.973c-1.923,-1.216 -4.122,-1.824 -6.597,-1.824c-2.431,0 -4.608,0.608 -6.531,1.824c-1.923,1.215 -3.447,2.874 -4.575,4.973c-1.127,2.098 -1.691,4.497 -1.691,7.192c-0,2.697 0.564,5.085 1.691,7.16c1.128,2.079 2.652,3.724 4.575,4.939c1.923,1.217 4.1,1.824 6.531,1.824c2.475,0 4.674,-0.607 6.597,-1.824c1.922,-1.215 3.437,-2.86 4.542,-4.939c1.104,-2.075 1.656,-4.463 1.656,-7.16Zm3.978,0c0,3.36 -0.739,6.377 -2.221,9.05c-1.481,2.674 -3.48,4.774 -5.999,6.298c-2.52,1.526 -5.371,2.288 -8.553,2.288c-3.139,0 -5.979,-0.762 -8.52,-2.288c-2.541,-1.524 -4.553,-3.624 -6.033,-6.298c-1.481,-2.673 -2.222,-5.69 -2.222,-9.05c-0,-3.403 0.741,-6.43 2.222,-9.084c1.48,-2.65 3.492,-4.75 6.033,-6.297c2.541,-1.546 5.381,-2.32 8.52,-2.32c3.182,0 6.033,0.774 8.553,2.32c2.519,1.547 4.518,3.647 5.999,6.297c1.482,2.654 2.221,5.681 2.221,9.084Z" style="fill:#545e9c;fill-rule:nonzero;"/><path d="M158.486,169.44c0.575,0 1.05,0.198 1.425,0.595c0.375,0.398 0.564,0.863 0.564,1.392l-0,18.698c-0,4.375 -1.239,7.713 -3.712,10.011c-2.477,2.298 -5.813,3.448 -10.011,3.448c-4.157,0 -7.46,-1.15 -9.912,-3.448c-2.454,-2.298 -3.68,-5.636 -3.68,-10.011l-0,-18.698c-0,-0.529 0.188,-0.994 0.563,-1.392c0.375,-0.397 0.85,-0.595 1.426,-0.595c0.573,0 1.05,0.198 1.425,0.595c0.375,0.398 0.564,0.863 0.564,1.392l-0,18.698c-0,3.181 0.849,5.601 2.553,7.26c1.7,1.656 4.053,2.485 7.061,2.485c3.049,0 5.436,-0.829 7.159,-2.485c1.725,-1.659 2.586,-4.079 2.586,-7.26l0,-18.698c0,-0.529 0.177,-0.994 0.53,-1.392c0.354,-0.397 0.84,-0.595 1.459,-0.595Z" style="fill:#545e9c;fill-rule:nonzero;"/><path d="M189.845,168.445c2.917,0 5.248,0.587 6.996,1.757c1.744,1.171 3.004,2.763 3.778,4.774c0.773,2.01 1.16,4.232 1.16,6.662l-0,19.492c-0,0.531 -0.198,0.995 -0.597,1.392c-0.398,0.398 -0.863,0.597 -1.392,0.597c-0.62,0 -1.106,-0.199 -1.458,-0.597c-0.356,-0.397 -0.531,-0.861 -0.531,-1.392l0,-19.293c0,-1.767 -0.288,-3.381 -0.863,-4.84c-0.574,-1.458 -1.513,-2.63 -2.817,-3.515c-1.305,-0.882 -3.016,-1.324 -5.137,-1.324c-1.901,0 -3.702,0.442 -5.405,1.324c-1.701,0.885 -3.082,2.057 -4.143,3.515c-1.06,1.459 -1.591,3.073 -1.591,4.84l-0,19.293c-0,0.531 -0.2,0.995 -0.597,1.392c-0.398,0.398 -0.863,0.597 -1.392,0.597c-0.62,0 -1.106,-0.199 -1.458,-0.597c-0.354,-0.397 -0.531,-0.861 -0.531,-1.392l-0,-29.703c-0,-0.529 0.187,-0.994 0.564,-1.39c0.375,-0.399 0.85,-0.597 1.425,-0.597c0.574,0 1.05,0.198 1.426,0.597c0.375,0.396 0.563,0.861 0.563,1.39l-0,5.57l-1.526,2.388c0.089,-1.415 0.542,-2.774 1.361,-4.079c0.816,-1.303 1.866,-2.475 3.148,-3.514c1.283,-1.037 2.706,-1.857 4.277,-2.451c1.567,-0.599 3.148,-0.896 4.74,-0.896Z" style="fill:#545e9c;fill-rule:nonzero;"/><path d="M228.894,200.07c2.343,0 4.42,-0.608 6.232,-1.824c1.812,-1.215 3.237,-2.873 4.277,-4.971c1.039,-2.102 1.56,-4.499 1.56,-7.194c0,-2.654 -0.521,-5.028 -1.56,-7.127c-1.04,-2.1 -2.465,-3.757 -4.277,-4.974c-1.812,-1.215 -3.889,-1.822 -6.232,-1.822c-2.298,0 -4.365,0.607 -6.198,1.822c-1.835,1.217 -3.272,2.874 -4.31,4.974c-1.039,2.099 -1.558,4.473 -1.558,7.127c-0,2.65 0.519,5.037 1.558,7.159c1.038,2.123 2.475,3.791 4.31,5.006c1.833,1.216 3.9,1.824 6.198,1.824Zm13.791,-46.013c0.574,0 1.051,0.189 1.426,0.564c0.375,0.377 0.564,0.852 0.564,1.425l-0,45.084c-0,0.531 -0.199,0.995 -0.598,1.392c-0.398,0.398 -0.861,0.597 -1.392,0.597c-0.62,0 -1.104,-0.199 -1.458,-0.597c-0.354,-0.397 -0.531,-0.861 -0.531,-1.392l0,-7.89l1.128,-0.927c-0,1.236 -0.333,2.531 -0.995,3.878c-0.663,1.348 -1.603,2.598 -2.818,3.745c-1.215,1.152 -2.631,2.078 -4.244,2.787c-1.614,0.705 -3.37,1.059 -5.271,1.059c-2.916,0 -5.557,-0.772 -7.921,-2.319c-2.366,-1.548 -4.235,-3.648 -5.603,-6.3c-1.371,-2.652 -2.056,-5.68 -2.056,-9.082c-0,-3.359 0.685,-6.375 2.056,-9.05c1.368,-2.674 3.225,-4.774 5.568,-6.3c2.343,-1.524 4.973,-2.286 7.89,-2.286c1.857,0 3.603,0.332 5.238,0.995c1.634,0.661 3.083,1.569 4.343,2.718c1.26,1.149 2.254,2.463 2.982,3.943c0.732,1.484 1.096,3.017 1.096,4.61l-1.393,-0.995l0,-23.67c0,-0.529 0.177,-0.994 0.531,-1.39c0.354,-0.399 0.838,-0.599 1.458,-0.599Z" style="fill:#545e9c;fill-rule:nonzero;"/><path d="M271.789,200.07c2.343,0 4.419,-0.608 6.233,-1.824c1.81,-1.215 3.236,-2.895 4.276,-5.037c1.037,-2.145 1.557,-4.544 1.557,-7.196c-0,-2.605 -0.52,-4.948 -1.557,-7.027c-1.04,-2.076 -2.466,-3.734 -4.276,-4.973c-1.814,-1.236 -3.89,-1.855 -6.233,-1.855c-2.298,0 -4.365,0.597 -6.199,1.789c-1.833,1.193 -3.27,2.829 -4.31,4.907c-1.038,2.077 -1.557,4.465 -1.557,7.159c-0,2.652 0.506,5.051 1.526,7.196c1.015,2.142 2.44,3.822 4.275,5.037c1.833,1.216 3.922,1.824 6.265,1.824Zm13.789,-30.83c0.575,0 1.051,0.2 1.427,0.597c0.375,0.398 0.564,0.885 0.564,1.457l0,29.836c0,0.531 -0.199,0.995 -0.597,1.392c-0.399,0.398 -0.862,0.597 -1.394,0.597c-0.617,0 -1.105,-0.199 -1.456,-0.597c-0.357,-0.397 -0.531,-0.861 -0.531,-1.392l0,-7.89l1.127,-0.529c-0,1.237 -0.343,2.497 -1.026,3.778c-0.688,1.283 -1.626,2.475 -2.819,3.581c-1.194,1.105 -2.598,2.001 -4.21,2.685c-1.614,0.684 -3.371,1.027 -5.273,1.027c-2.961,0 -5.624,-0.772 -7.987,-2.319c-2.366,-1.548 -4.222,-3.67 -5.571,-6.366c-1.347,-2.694 -2.021,-5.724 -2.021,-9.084c0,-3.447 0.685,-6.484 2.055,-9.115c1.37,-2.628 3.227,-4.695 5.57,-6.198c2.341,-1.503 4.972,-2.255 7.888,-2.255c1.902,0 3.683,0.332 5.339,0.995c1.657,0.661 3.103,1.569 4.342,2.718c1.238,1.149 2.21,2.463 2.917,3.943c0.707,1.484 1.061,3.017 1.061,4.61l-1.392,-0.995l0,-8.422c0,-0.572 0.174,-1.059 0.531,-1.457c0.351,-0.397 0.839,-0.597 1.456,-0.597Z" style="fill:#545e9c;fill-rule:nonzero;"/><path d="M305.602,160.024c0.574,0 1.048,0.199 1.425,0.597c0.375,0.397 0.564,0.862 0.564,1.393l0,33.282c0,1.239 0.167,2.165 0.497,2.784c0.333,0.62 0.763,1.029 1.293,1.227c0.53,0.198 1.061,0.299 1.591,0.299c0.353,0 0.673,-0.054 0.963,-0.167c0.285,-0.109 0.606,-0.165 0.959,-0.165c0.399,0 0.739,0.155 1.028,0.465c0.287,0.309 0.433,0.705 0.433,1.191c-0,0.623 -0.355,1.14 -1.062,1.56c-0.708,0.42 -1.547,0.629 -2.521,0.629c-0.395,0 -0.993,-0.033 -1.789,-0.099c-0.795,-0.068 -1.613,-0.309 -2.453,-0.729c-0.84,-0.422 -1.536,-1.161 -2.088,-2.222c-0.555,-1.062 -0.828,-2.584 -0.828,-4.576l-0,-33.479c-0,-0.531 0.188,-0.996 0.563,-1.393c0.375,-0.398 0.851,-0.597 1.425,-0.597Zm-6.83,9.348l15.449,0c0.531,0 0.972,0.187 1.326,0.562c0.354,0.378 0.529,0.831 0.529,1.361c-0,0.487 -0.175,0.907 -0.529,1.26c-0.354,0.355 -0.795,0.531 -1.326,0.531l-15.449,0c-0.529,0 -0.984,-0.188 -1.359,-0.564c-0.376,-0.375 -0.564,-0.807 -0.564,-1.293c0,-0.53 0.188,-0.972 0.564,-1.325c0.375,-0.354 0.83,-0.532 1.359,-0.532Z" style="fill:#545e9c;fill-rule:nonzero;"/><path d="M330.264,201.13c-0,0.531 -0.199,0.995 -0.597,1.392c-0.397,0.398 -0.862,0.597 -1.392,0.597c-0.576,0 -1.05,-0.199 -1.425,-0.597c-0.376,-0.397 -0.564,-0.861 -0.564,-1.392l-0,-30.498c-0,-0.531 0.188,-0.994 0.564,-1.392c0.375,-0.397 0.849,-0.597 1.425,-0.597c0.575,0 1.05,0.2 1.425,0.597c0.375,0.398 0.564,0.861 0.564,1.392l-0,30.498Zm-1.989,-36.928c-0.927,0 -1.624,-0.21 -2.089,-0.63c-0.462,-0.419 -0.696,-1.028 -0.696,-1.824l-0,-0.662c-0,-0.796 0.253,-1.404 0.762,-1.824c0.508,-0.418 1.204,-0.63 2.089,-0.63c0.839,0 1.493,0.212 1.955,0.63c0.465,0.42 0.696,1.028 0.696,1.824l0,0.662c0,0.796 -0.231,1.405 -0.696,1.824c-0.462,0.42 -1.137,0.63 -2.021,0.63Z" style="fill:#545e9c;fill-rule:nonzero;"/><path d="M370.905,186.146c0,-2.695 -0.552,-5.094 -1.656,-7.192c-1.107,-2.099 -2.621,-3.758 -4.544,-4.973c-1.921,-1.216 -4.122,-1.824 -6.597,-1.824c-2.43,0 -4.608,0.608 -6.531,1.824c-1.921,1.215 -3.447,2.874 -4.573,4.973c-1.127,2.098 -1.691,4.497 -1.691,7.192c-0,2.697 0.564,5.085 1.691,7.16c1.126,2.079 2.652,3.724 4.573,4.939c1.923,1.217 4.101,1.824 6.531,1.824c2.475,0 4.676,-0.607 6.597,-1.824c1.923,-1.215 3.437,-2.86 4.544,-4.939c1.104,-2.075 1.656,-4.463 1.656,-7.16Zm3.978,0c0,3.36 -0.741,6.377 -2.22,9.05c-1.482,2.674 -3.48,4.774 -6,6.298c-2.522,1.526 -5.372,2.288 -8.555,2.288c-3.138,0 -5.977,-0.762 -8.518,-2.288c-2.541,-1.524 -4.553,-3.624 -6.033,-6.298c-1.482,-2.673 -2.222,-5.69 -2.222,-9.05c-0,-3.403 0.74,-6.43 2.222,-9.084c1.48,-2.65 3.492,-4.75 6.033,-6.297c2.541,-1.546 5.38,-2.32 8.518,-2.32c3.183,0 6.033,0.774 8.555,2.32c2.52,1.547 4.518,3.647 6,6.297c1.479,2.654 2.22,5.681 2.22,9.084Z" style="fill:#545e9c;fill-rule:nonzero;"/><path d="M401.998,168.445c2.917,0 5.248,0.587 6.994,1.757c1.746,1.171 3.006,2.763 3.78,4.774c0.773,2.01 1.16,4.232 1.16,6.662l0,19.492c0,0.531 -0.198,0.995 -0.596,1.392c-0.397,0.398 -0.862,0.597 -1.393,0.597c-0.62,0 -1.104,-0.199 -1.46,-0.597c-0.352,-0.397 -0.528,-0.861 -0.528,-1.392l-0,-19.293c-0,-1.767 -0.289,-3.381 -0.862,-4.84c-0.576,-1.458 -1.515,-2.63 -2.817,-3.515c-1.305,-0.882 -3.018,-1.324 -5.139,-1.324c-1.902,0 -3.704,0.442 -5.405,1.324c-1.702,0.885 -3.081,2.057 -4.143,3.515c-1.06,1.459 -1.591,3.073 -1.591,4.84l-0,19.293c-0,0.531 -0.2,0.995 -0.596,1.392c-0.399,0.398 -0.864,0.597 -1.393,0.597c-0.618,0 -1.106,-0.199 -1.458,-0.597c-0.356,-0.397 -0.53,-0.861 -0.53,-1.392l0,-29.703c0,-0.529 0.188,-0.994 0.564,-1.39c0.375,-0.399 0.849,-0.597 1.424,-0.597c0.574,0 1.048,0.198 1.425,0.597c0.375,0.396 0.564,0.861 0.564,1.39l-0,5.57l-1.526,2.388c0.089,-1.415 0.542,-2.774 1.361,-4.079c0.817,-1.303 1.867,-2.475 3.148,-3.514c1.281,-1.037 2.708,-1.857 4.277,-2.451c1.569,-0.599 3.148,-0.896 4.74,-0.896Z" style="fill:#545e9c;fill-rule:nonzero;"/><path d="M52.044,130.579c-0,1.339 -0.335,2.238 -0.999,2.713c-0.668,0.47 -1.515,0.705 -2.534,0.705l-44.749,0c-1.253,0 -2.195,-0.235 -2.822,-0.705c-0.627,-0.475 -0.94,-1.495 -0.94,-3.063l-0,-74.656c-0,-2.194 1.098,-3.298 3.292,-3.298l11.897,0c1.333,0 2.253,0.256 2.764,0.769c0.507,0.512 0.77,1.431 0.77,2.765l-0,62.41l30.022,0c2.196,0 3.299,1.138 3.299,3.412l-0,8.948Z" style="fill:#f37366;fill-rule:nonzero;"/><path d="M92.73,105.265c0,-2.195 -0.178,-4.275 -0.538,-6.24c-0.356,-1.96 -0.972,-3.69 -1.839,-5.179c-0.873,-1.49 -2.024,-2.693 -3.45,-3.593c-1.433,-0.903 -3.252,-1.353 -5.474,-1.353c-2.221,0 -4.066,0.429 -5.535,1.292c-1.464,0.867 -2.655,2.043 -3.565,3.534c-0.914,1.494 -1.568,3.219 -1.965,5.179c-0.398,1.963 -0.596,4.003 -0.596,6.126c-0,2.2 0.179,4.296 0.533,6.298c0.361,2.001 0.972,3.768 1.851,5.3c0.867,1.531 2.017,2.749 3.45,3.648c1.422,0.904 3.25,1.354 5.467,1.354c2.226,0 4.067,-0.45 5.535,-1.354c1.469,-0.899 2.655,-2.096 3.57,-3.591c0.909,-1.49 1.563,-3.236 1.961,-5.237c0.397,-2.002 0.595,-4.066 0.595,-6.184Zm18.133,0.115c-0,4.323 -0.669,8.327 -1.997,12.012c-1.338,3.69 -3.282,6.873 -5.833,9.539c-2.552,2.671 -5.693,4.767 -9.419,6.3c-3.732,1.53 -7.988,2.299 -12.776,2.299c-4.944,0 -9.262,-0.769 -12.951,-2.299c-3.69,-1.533 -6.733,-3.65 -9.126,-6.357c-2.395,-2.708 -4.183,-5.907 -5.358,-9.597c-1.176,-3.69 -1.767,-7.731 -1.767,-12.132c-0,-4.313 0.663,-8.316 2.001,-12.006c1.334,-3.69 3.273,-6.868 5.829,-9.538c2.55,-2.672 5.693,-4.773 9.419,-6.3c3.726,-1.532 7.987,-2.3 12.78,-2.3c4.944,0 9.262,0.768 12.952,2.3c3.69,1.527 6.728,3.649 9.127,6.357c2.394,2.707 4.176,5.905 5.352,9.597c1.182,3.69 1.767,7.735 1.767,12.125Z" style="fill:#f37366;fill-rule:nonzero;"/><path d="M170.157,130.464c0,1.176 -0.235,2.06 -0.705,2.651c-0.471,0.585 -1.375,0.882 -2.713,0.882l-10.83,0c-2.28,0 -3.413,-1.181 -3.413,-3.533l-0,-31.325c-0,-2.508 -0.435,-4.511 -1.297,-6c-0.863,-1.496 -2.67,-2.237 -5.42,-2.237c-1.96,0 -4.041,0.407 -6.237,1.233c-2.199,0.827 -4.123,1.944 -5.769,3.357l0,35.086c0,2.28 -1.104,3.419 -3.298,3.419l-11.072,0c-2.194,0 -3.292,-1.061 -3.292,-3.183l0,-50.748c0,-1.098 0.229,-1.945 0.705,-2.529c0.471,-0.591 1.375,-0.885 2.709,-0.885l9.653,0c0.868,0 1.589,0.158 2.18,0.471c0.59,0.314 0.962,0.984 1.118,2.003l0.235,2.472c2.75,-2.121 5.693,-3.747 8.834,-4.887c3.136,-1.14 6.477,-1.71 10.005,-1.71c6.517,0 11.248,1.887 14.191,5.656c2.942,3.764 4.416,8.87 4.416,15.305l0,34.502Z" style="fill:#f37366;fill-rule:nonzero;"/><path d="M214.492,93.15c-1.098,-1.103 -2.467,-2.007 -4.119,-2.718c-1.647,-0.705 -3.334,-1.062 -5.059,-1.062c-1.574,0 -2.99,0.294 -4.245,0.883c-1.254,0.597 -2.31,1.323 -3.177,2.186c-1.569,1.578 -2.646,3.591 -3.242,6.033c-0.585,2.44 -0.877,4.729 -0.877,6.856c0,2.127 0.271,4.276 0.825,6.439c0.544,2.169 1.605,3.999 3.178,5.499c0.941,0.947 2.06,1.616 3.356,2.007c1.297,0.398 2.53,0.593 3.711,0.593c1.798,0 3.628,-0.45 5.473,-1.361c1.845,-0.904 3.236,-1.872 4.176,-2.895l-0,-22.46Zm17.667,36.232c0,9.901 -2.28,17.443 -6.831,22.623c-4.554,5.184 -11.934,7.777 -22.137,7.777c-3.063,0 -6.063,-0.256 -9.012,-0.763c-2.937,-0.512 -5.983,-1.431 -9.124,-2.765c-1.412,-0.555 -2.118,-1.416 -2.118,-2.592c0,-0.393 0.037,-0.747 0.12,-1.062c0.073,-0.313 0.157,-0.627 0.231,-0.94l2.007,-6.597c0.229,-0.783 0.471,-1.374 0.705,-1.766c0.235,-0.393 0.591,-0.586 1.06,-0.586c0.785,0 1.527,0.157 2.238,0.469c2.195,0.864 4.391,1.533 6.591,2.003c2.201,0.471 4.319,0.706 6.362,0.706c2.665,0 4.809,-0.334 6.418,-0.999c1.605,-0.667 2.844,-1.573 3.707,-2.712c0.862,-1.134 1.431,-2.472 1.708,-4.003c0.272,-1.527 0.408,-3.2 0.408,-5.003l-0,-4.24c-1.647,1.339 -3.826,2.553 -6.534,3.649c-2.707,1.103 -5.238,1.653 -7.59,1.653c-7.222,0 -13.035,-2.196 -17.431,-6.597c-2.514,-2.509 -4.395,-5.593 -5.651,-9.241c-1.254,-3.653 -1.881,-7.637 -1.881,-11.955c0,-4.004 0.564,-7.866 1.704,-11.598c1.139,-3.726 2.822,-7.045 5.06,-9.946c2.236,-2.906 5.007,-5.243 8.305,-7.01c3.299,-1.767 7.104,-2.65 11.421,-2.65c2.75,0 5.415,0.586 8.007,1.752c0.942,0.391 1.965,1.012 3.063,1.872c1.098,0.856 1.961,1.75 2.594,2.686l0.229,-2.593c0.158,-1.569 1.182,-2.358 3.063,-2.358l10.011,0c1.254,0 2.117,0.256 2.586,0.769c0.477,0.512 0.711,1.353 0.711,2.529l0,49.488Z" style="fill:#f37366;fill-rule:nonzero;"/><path d="M258.597,130.699c-0,2.202 -1.019,3.298 -3.063,3.298l-11.415,0c-0.867,0 -1.611,-0.256 -2.238,-0.768c-0.632,-0.507 -0.945,-1.312 -0.945,-2.415l-0,-76.417c-0,-1.176 0.255,-1.981 0.768,-2.415c0.507,-0.429 1.191,-0.726 2.059,-0.883l11.186,-1.532l1.18,0c1.643,0 2.468,0.983 2.468,2.943l-0,78.189Z" style="fill:#f37366;fill-rule:nonzero;"/><path d="M302.347,98.789c-0,-1.254 -0.178,-2.493 -0.532,-3.711c-0.351,-1.212 -0.921,-2.316 -1.706,-3.298c-0.784,-0.977 -1.744,-1.761 -2.884,-2.351c-1.14,-0.592 -2.457,-0.883 -3.942,-0.883c-2.99,0 -5.405,1.018 -7.244,3.063c-1.846,2.037 -2.964,4.431 -3.355,7.18l19.663,0Zm17.312,7.773c0,1.411 -0.336,2.335 -1.004,2.764c-0.669,0.434 -1.746,0.648 -3.241,0.648l-32.967,0c0.706,3.732 2.509,6.566 5.416,8.51c2.9,1.945 6.162,2.911 9.774,2.911c2.588,0 5.123,-0.271 7.595,-0.82c2.472,-0.549 4.888,-1.296 7.245,-2.237c0.469,-0.241 0.94,-0.355 1.41,-0.355c0.942,0 1.569,0.549 1.882,1.647c0.078,0.469 0.257,1.143 0.534,2.011c0.27,0.867 0.527,1.757 0.764,2.667c0.234,0.908 0.448,1.781 0.646,2.613c0.194,0.831 0.293,1.484 0.293,1.955c-0,0.795 -0.219,1.348 -0.647,1.666c-0.429,0.315 -0.963,0.633 -1.59,0.947c-3.136,1.426 -6.616,2.455 -10.422,3.088c-3.805,0.633 -7.432,0.953 -10.893,0.953c-4.704,0 -8.949,-0.711 -12.711,-2.123c-3.775,-1.411 -6.973,-3.412 -9.598,-6.006c-2.634,-2.586 -4.673,-5.769 -6.126,-9.538c-1.452,-3.764 -2.174,-8.003 -2.174,-12.719c0,-4.546 0.743,-8.692 2.237,-12.418c1.485,-3.726 3.565,-6.909 6.241,-9.538c2.666,-2.63 5.865,-4.668 9.597,-6.126c3.722,-1.449 7.866,-2.175 12.419,-2.175c3.769,0 7.203,0.664 10.308,2.001c3.094,1.333 5.749,3.18 7.944,5.532c2.979,3.141 4.903,6.652 5.772,10.542c0.862,3.883 1.296,7.907 1.296,12.068l0,1.532Z" style="fill:#f37366;fill-rule:nonzero;"/><path d="M387.494,93.15c-1.102,-1.103 -2.478,-2.007 -4.125,-2.718c-1.647,-0.705 -3.34,-1.062 -5.064,-1.062c-1.569,0 -2.979,0.294 -4.234,0.883c-1.26,0.597 -2.321,1.323 -3.183,2.186c-1.574,1.578 -2.651,3.591 -3.237,6.033c-0.59,2.44 -0.887,4.729 -0.887,6.856c-0,2.127 0.276,4.276 0.825,6.439c0.555,2.169 1.611,3.999 3.179,5.499c0.945,0.947 2.065,1.616 3.355,2.007c1.296,0.398 2.535,0.593 3.711,0.593c1.809,0 3.632,-0.45 5.478,-1.361c1.839,-0.904 3.24,-1.872 4.182,-2.895l-0,-22.46Zm17.661,36.232c0,9.901 -2.278,17.443 -6.831,22.623c-4.552,5.184 -11.932,7.777 -22.137,7.777c-3.063,0 -6.063,-0.256 -9.006,-0.763c-2.947,-0.512 -5.989,-1.431 -9.126,-2.765c-1.41,-0.555 -2.122,-1.416 -2.122,-2.592c-0,-0.393 0.042,-0.747 0.115,-1.062c0.084,-0.313 0.158,-0.627 0.24,-0.94l1.997,-6.597c0.241,-0.783 0.477,-1.374 0.711,-1.766c0.235,-0.393 0.586,-0.586 1.056,-0.586c0.784,0 1.536,0.157 2.236,0.469c2.202,0.864 4.403,1.533 6.599,2.003c2.194,0.471 4.317,0.706 6.355,0.706c2.67,0 4.808,-0.334 6.417,-0.999c1.611,-0.667 2.844,-1.573 3.713,-2.712c0.862,-1.134 1.432,-2.472 1.71,-4.003c0.27,-1.527 0.412,-3.2 0.412,-5.003l-0,-4.24c-1.653,1.339 -3.826,2.553 -6.534,3.649c-2.713,1.103 -5.244,1.653 -7.6,1.653c-7.223,0 -13.031,-2.196 -17.427,-6.597c-2.508,-2.509 -4.395,-5.593 -5.651,-9.241c-1.258,-3.653 -1.885,-7.637 -1.885,-11.955c0,-4.004 0.568,-7.866 1.708,-11.598c1.134,-3.726 2.828,-7.045 5.064,-9.946c2.238,-2.906 5.003,-5.243 8.301,-7.01c3.294,-1.767 7.104,-2.65 11.421,-2.65c2.745,0 5.421,0.586 8.009,1.752c0.945,0.391 1.959,1.012 3.063,1.872c1.096,0.856 1.959,1.75 2.586,2.686l0.24,-2.593c0.159,-1.569 1.173,-2.358 3.058,-2.358l10.01,0c1.254,0 2.122,0.256 2.593,0.769c0.47,0.512 0.705,1.353 0.705,2.529l0,49.488Z" style="fill:#f37366;fill-rule:nonzero;"/><path d="M468.333,131.641c-0,1.024 -0.099,1.666 -0.293,1.944c-0.198,0.276 -0.727,0.412 -1.588,0.412l-13.778,0c-0.87,0 -1.434,-0.12 -1.71,-0.355c-0.277,-0.234 -0.412,-0.899 -0.412,-2.001l0,-32.502c0,-2.508 -0.45,-4.51 -1.35,-6c-0.909,-1.495 -2.697,-2.236 -5.363,-2.236c-1.965,0 -4.081,0.406 -6.355,1.233c-2.279,0.826 -4.241,1.944 -5.886,3.355l-0,36.15c-0,1.024 -0.141,1.666 -0.419,1.944c-0.271,0.276 -0.919,0.412 -1.939,0.412l-13.428,0c-0.783,0 -1.29,-0.136 -1.526,-0.412c-0.24,-0.278 -0.355,-0.842 -0.355,-1.71l0,-77.362c0,-1.256 0.256,-2.097 0.763,-2.531c0.512,-0.429 1.238,-0.726 2.184,-0.883l10.716,-1.412c0.314,-0.078 0.648,-0.12 0.999,-0.12l0.884,0c1.41,0 2.121,0.827 2.121,2.474l-0,28.852c1.171,-0.946 2.488,-1.788 3.942,-2.535c1.452,-0.744 2.979,-1.371 4.588,-1.882c1.611,-0.513 3.221,-0.884 4.83,-1.118c1.61,-0.237 3.156,-0.357 4.653,-0.357c6.44,0 11.163,1.91 14.19,5.714c3.021,3.805 4.532,8.892 4.532,15.247l-0,35.679Z" style="fill:#f37366;fill-rule:nonzero;"/><path d="M344.158,130.572c-0,2.202 -1.019,3.299 -3.063,3.299l-11.415,0c-0.867,0 -1.611,-0.257 -2.238,-0.768c-0.632,-0.507 -0.945,-1.313 -0.945,-2.415l-0,-51.943c-0,-1.176 0.255,-1.982 0.768,-2.415c0.507,-0.429 1.191,-0.726 2.059,-0.884l11.186,-1.531l1.18,0c1.643,0 2.468,0.982 2.468,2.943l-0,53.714Z" style="fill:#f37366;fill-rule:nonzero;"/><path d="M341.775,68.942l-12.895,0c-1.398,0 -2.531,-1.134 -2.531,-2.532l0,-14.889c0,-1.398 1.133,-2.532 2.531,-2.532l12.895,0c1.398,0 2.531,1.134 2.531,2.532l0,14.889c0,1.398 -1.133,2.532 -2.531,2.532Z" style="fill:#f37366;fill-rule:nonzero;"/></svg>